<?xml version="1.0" encoding="UTF-8"?>
<svg width="20px" height="20px" viewBox="0 0 20 20" version="1.1" xmlns="http://www.w3.org/2000/svg" xmlns:xlink="http://www.w3.org/1999/xlink">
    <title>instagram</title>
    <g id="Page-1" stroke="none" stroke-width="1" fill="none" fill-rule="evenodd">
        <g id="About" transform="translate(-1247.000000, -764.000000)" fill="#FFFFFF">
            <g id="Hero" transform="translate(0.000000, 196.000000)">
                <g id="Socials" transform="translate(942.000000, 568.000000)">
                    <path d="M310.555556,0 C307.487311,0 305,2.48731101 305,5.55555532 L305,14.4444438 C305,17.512689 307.487311,20 310.555555,20 L319.444444,20 C322.512688,20 325,17.512689 325,14.4444447 L325,5.55555616 C325,2.48731185 322.512688,0 319.444444,0 L310.555556,0 Z M323.055555,14.4444445 C323.049481,16.4362283 321.436322,18.0494282 319.444489,18.0555504 L310.555556,18.0555504 C308.563723,18.0494499 306.950545,16.4362727 306.944445,14.4444445 L306.944445,5.55555093 C306.950518,3.56376663 308.563678,1.9505667 310.555511,1.94444447 L319.4444,1.94444447 C321.436244,1.9505183 323.049455,3.56371107 323.055555,5.55555543 L323.055555,14.4444445 Z M320.277777,5.83333309 C319.664127,5.83333309 319.166666,5.335872 319.166666,4.72222202 C319.166666,4.10857205 319.664127,3.61111096 320.277777,3.61111096 C320.891427,3.61111096 321.388888,4.10857205 321.388888,4.72222202 C321.388888,5.335872 320.891427,5.83333309 320.277777,5.83333309 Z M310,9.99999958 C310,12.7614217 312.238577,14.9999994 315,14.9999994 C317.761422,14.9999994 320.000049,12.7614217 320.000049,9.99999958 C320.006091,7.24462799 317.777433,5.00609475 315.022155,4.99998256 C315.01474,4.99998256 315.007324,4.99998256 314.999909,4.99998256 C312.238577,4.99998256 310,7.23857747 310,9.99999958 Z M311.944444,9.99999958 C311.944444,8.31246632 313.312466,6.94444415 315,6.94444415 C316.687533,6.94444415 318.055555,8.31246632 318.055555,9.99999958 C318.055555,11.6875327 316.687533,13.055555 315,13.055555 C313.312466,13.055555 311.944444,11.6875328 311.944444,9.99999958 Z" id="instagram"></path>
                </g>
            </g>
        </g>
    </g>
</svg>