<?xml version="1.0" encoding="UTF-8"?>
<svg width="21px" height="20px" viewBox="0 0 21 20" version="1.1" xmlns="http://www.w3.org/2000/svg" xmlns:xlink="http://www.w3.org/1999/xlink">
    <title>linkedin copy</title>
    <g id="About" stroke="none" stroke-width="1" fill="none" fill-rule="evenodd">
        <g id="Artboard" transform="translate(-827.000000, -24.000000)" fill="#FFFFFF">
            <path d="M831.799838,31.6470583 L831.799838,43.4117633 L831.799838,43.4117633 C831.799838,43.7366362 831.531218,43.9999985 831.199858,43.9999985 L828.19996,43.9999985 L828.19996,43.9999985 C827.8686,43.9999985 827.59998,43.7366362 827.59998,43.4117633 C827.59998,43.4117633 827.59998,43.4117633 827.59998,43.4117633 L827.59998,31.6470583 L827.59998,31.6470584 C827.59998,31.3221854 827.8686,31.0588231 828.19996,31.0588231 L831.199858,31.0588231 L831.199858,31.0588231 C831.531217,31.0588231 831.799838,31.3221854 831.799838,31.6470584 L831.799838,31.6470583 Z M847.999291,36.2470579 L847.999291,36.247044 C848.040646,33.6998677 846.268242,31.4677738 843.739423,30.8823503 L843.739423,30.8823504 C842.044781,30.5245939 840.278356,30.9937291 838.999595,32.1411738 L838.999595,31.6470562 L838.999595,31.6470562 C838.999595,31.3221833 838.730975,31.0588209 838.399616,31.0588209 C838.399616,31.0588209 838.399616,31.0588209 838.399615,31.0588209 L835.399717,31.0588209 L835.399717,31.0588209 C835.068358,31.058821 834.799737,31.3221833 834.799737,31.6470562 C834.799737,31.6470562 834.799737,31.6470562 834.799737,31.6470562 L834.799737,43.4117612 L834.799737,43.4117613 C834.799737,43.7366342 835.068358,44 835.399717,44 L838.399615,44 L838.399615,44 C838.730975,44 838.999595,43.7366342 838.999595,43.4117613 L838.999595,36.7764677 L838.999595,36.7764698 C838.969962,35.594964 839.809869,34.5631406 840.991528,34.3294112 L840.991528,34.3294112 C842.297648,34.1083595 843.539246,34.9672559 843.764706,36.2478111 C843.789969,36.3912934 843.801593,36.5367652 843.799428,36.6823534 L843.799428,43.4117647 L843.799428,43.4117647 C843.799428,43.7366377 844.068049,44 844.399408,44 L847.399307,44 L847.399307,44 C847.730666,44 847.999287,43.7366377 847.999287,43.4117647 L847.999291,36.2470579 Z M829.399919,24 L829.399919,24 C828.07448,24 827,25.0534482 827,26.352941 C827,27.652435 828.074481,28.705882 829.399919,28.705882 C830.725358,28.705882 831.799838,27.6524339 831.799838,26.352941 L831.799838,26.3529411 C831.799838,25.0534471 830.725358,24 829.399919,24 L829.399919,24 Z" id="linkedin-copy"></path>
        </g>
    </g>
</svg>