<?xml version="1.0" encoding="UTF-8"?>
<svg width="24px" height="20px" viewBox="0 0 24 20" version="1.1" xmlns="http://www.w3.org/2000/svg" xmlns:xlink="http://www.w3.org/1999/xlink">
    <title>twitter</title>
    <g id="Page-1" stroke="none" stroke-width="1" fill="none" fill-rule="evenodd">
        <g id="About" transform="translate(-942.000000, -764.000000)" fill="#FFFFFF">
            <g id="Hero" transform="translate(0.000000, 196.000000)">
                <g id="Socials" transform="translate(942.000000, 568.000000)">
                    <path d="M21.7481643,4.99045966 C21.7481643,5.20200826 21.7481643,5.41355685 21.7481643,5.63685814 C21.7621017,13.5558088 15.2287215,19.9863455 7.15548508,20 C7.07911557,20 7.00274655,19.9996502 6.92638448,19.9986056 C4.66231437,20.0060207 2.42724006,19.4991734 0.396230102,18.5177654 C0.286718588,18.4708859 0.216085318,18.3646536 0.216501091,18.2474533 L0.216501091,18.1181748 C0.216501065,17.9494131 0.355978009,17.8126046 0.528031414,17.8126046 C2.75361636,17.740723 4.89979669,16.9842109 6.66292652,15.6501079 C4.64851141,15.6103384 2.83606393,14.440379 2.00195347,12.6414167 C1.93525218,12.4858533 2.00974908,12.3067057 2.1683466,12.2412808 C2.21416528,12.2223796 2.26392973,12.2145066 2.31348378,12.2183195 C2.92570785,12.2786536 3.54405241,12.2227908 4.13473786,12.0537817 C1.91099812,11.6012181 0.240105226,9.79126943 0.000969756606,7.57600306 C-0.0124856146,7.40775824 0.115656393,7.26066968 0.287183431,7.2474714 C0.336737122,7.24365854 0.386501575,7.25153155 0.432320616,7.27043277 C1.02907601,7.52859134 1.6732656,7.66456303 2.32546632,7.67002451 C0.376940305,6.41617618 -0.46469481,4.0313066 0.276555649,1.86419105 C0.396519969,1.5340272 0.766640759,1.3617667 1.10324448,1.47943591 C1.20442941,1.51480789 1.29504412,1.57433367 1.36691176,1.6526425 C3.9963236,4.39628679 7.60917671,6.03120485 11.4437196,6.21269004 C11.3454996,5.82844028 11.2971889,5.43355427 11.2999364,5.03742013 C11.3487873,2.20782442 13.7269731,-0.0471660746 16.6117679,0.000749682119 C18.006609,0.0239180141 19.3340517,0.593330204 20.2983698,1.58212244 C21.2963341,1.39573269 22.2611196,1.06709312 23.1620533,0.606649377 C23.2280471,0.566254642 23.311734,0.566254642 23.3777281,0.606649378 C23.4189107,0.671380662 23.4189107,0.753466453 23.3777281,0.818197972 C22.941346,1.79790772 22.2041383,2.61961653 21.2689075,3.16873792 C22.087875,3.07562647 22.8924476,2.88622301 23.6652944,2.60460835 C23.7303699,2.56118223 23.8158942,2.56118223 23.8809693,2.60460836 C23.9832759,2.65049831 24.0282848,2.76904861 23.9814999,2.86939787 C23.9767841,2.87951274 23.9712155,2.88922373 23.9648521,2.8984295 C23.3455707,3.70830594 22.5970485,4.41473016 21.7481643,4.99045966 Z" id="twitter"></path>
                </g>
            </g>
        </g>
    </g>
</svg>