<svg width="65" height="43" viewBox="0 0 65 43" fill="none" xmlns="http://www.w3.org/2000/svg">
<mask id="path-1-outside-1_640_359" maskUnits="userSpaceOnUse" x="2" y="13" width="57" height="19" fill="black">
<rect fill="white" x="2" y="13" width="57" height="19"/>
<path d="M4.80762 30.0366C3.93685 30.0366 3.50146 29.8088 3.50146 29.353V15.4614C3.50146 15.2254 3.60726 15.0505 3.81885 14.9365C4.03044 14.8145 4.36003 14.7534 4.80762 14.7534H5.95508C6.64681 14.7534 7.09847 14.9528 7.31006 15.3516L10.96 21.8335L11.1431 22.1509L11.3262 21.7725L15.0005 15.3516C15.2202 14.9528 15.6759 14.7534 16.3677 14.7534H17.5029C18.3737 14.7534 18.8091 14.9894 18.8091 15.4614V29.353C18.8091 29.8088 18.3737 30.0366 17.5029 30.0366H16.8682C15.9974 30.0366 15.562 29.8088 15.562 29.353V20.3564L15.4766 20.332L12.3271 25.9595C12.14 26.2362 11.8511 26.3745 11.4604 26.3745H10.8379C10.6344 26.3745 10.4635 26.342 10.3252 26.2769C10.1868 26.2036 10.0688 26.0978 9.97119 25.9595L6.80957 20.332L6.72412 20.3564V29.353C6.72412 29.8088 6.29281 30.0366 5.43018 30.0366H4.80762ZM21.1167 30.0366C20.2297 30.0366 19.7861 29.8779 19.7861 29.5605C19.7861 29.471 19.8146 29.3408 19.8716 29.1699L24.6567 15.2173C24.7707 14.908 25.1816 14.7534 25.8896 14.7534H27.0127C27.7207 14.7534 28.1317 14.908 28.2456 15.2173L33.0308 29.1699C33.0715 29.3327 33.0918 29.4629 33.0918 29.5605C33.0918 29.7233 33.0023 29.8454 32.8232 29.9268C32.6523 30 32.3797 30.0366 32.0054 30.0366H31.0532C30.7114 30.0366 30.4347 30.0041 30.2231 29.939C30.0197 29.8657 29.8936 29.7477 29.8447 29.585L28.9658 26.936H23.8511L22.9722 29.585C22.8826 29.8861 22.549 30.0366 21.9712 30.0366H21.1167ZM28.0381 24.0674L26.8052 20.21C26.7319 20.0146 26.6668 19.7909 26.6099 19.5386C26.561 19.2863 26.5163 19.0462 26.4756 18.8184H26.3901L26.3413 19.0869C26.2599 19.5671 26.1663 19.9414 26.0605 20.21L24.7788 24.0674H28.0381ZM33.9224 30.0366C33.0353 30.0366 32.5918 29.8779 32.5918 29.5605C32.5918 29.471 32.6203 29.3408 32.6772 29.1699L37.4624 15.2173C37.5763 14.908 37.9873 14.7534 38.6953 14.7534H39.8184C40.5264 14.7534 40.9373 14.908 41.0513 15.2173L45.8364 29.1699C45.8771 29.3327 45.8975 29.4629 45.8975 29.5605C45.8975 29.7233 45.8079 29.8454 45.6289 29.9268C45.458 30 45.1854 30.0366 44.811 30.0366H43.8589C43.5171 30.0366 43.2404 30.0041 43.0288 29.939C42.8254 29.8657 42.6992 29.7477 42.6504 29.585L41.7715 26.936H36.6567L35.7778 29.585C35.6883 29.8861 35.3547 30.0366 34.7769 30.0366H33.9224ZM40.8438 24.0674L39.6108 20.21C39.5376 20.0146 39.4725 19.7909 39.4155 19.5386C39.3667 19.2863 39.3219 19.0462 39.2812 18.8184H39.1958L39.147 19.0869C39.0656 19.5671 38.972 19.9414 38.8662 20.21L37.5845 24.0674H40.8438ZM46.8379 30C46.7158 30 46.5897 29.882 46.4595 29.646C46.3293 29.41 46.2153 29.1374 46.1177 28.8281C46.0282 28.5107 45.9834 28.2544 45.9834 28.0591C45.9834 28.0184 45.9956 27.9492 46.02 27.8516L53.2954 17.6465H47.2651C47.0373 17.6465 46.8704 17.561 46.7646 17.3901C46.667 17.2192 46.6182 16.9425 46.6182 16.5601V15.9009C46.6182 15.5184 46.667 15.2417 46.7646 15.0708C46.8704 14.8999 47.0373 14.8145 47.2651 14.8145H57.1895C57.2952 14.8145 57.4092 14.9365 57.5312 15.1807C57.6615 15.4248 57.7673 15.7096 57.8486 16.0352C57.9382 16.3525 57.9829 16.6089 57.9829 16.8042C57.9829 16.8937 57.9748 16.9507 57.9585 16.9751L50.7075 27.1558H57.3359C57.5638 27.1558 57.7266 27.2412 57.8242 27.4121C57.93 27.583 57.9829 27.8556 57.9829 28.23V28.9136C57.9829 29.2961 57.93 29.5728 57.8242 29.7437C57.7266 29.9146 57.5638 30 57.3359 30H46.8379Z"/>
</mask>
<path d="M4.80762 30.0366C3.93685 30.0366 3.50146 29.8088 3.50146 29.353V15.4614C3.50146 15.2254 3.60726 15.0505 3.81885 14.9365C4.03044 14.8145 4.36003 14.7534 4.80762 14.7534H5.95508C6.64681 14.7534 7.09847 14.9528 7.31006 15.3516L10.96 21.8335L11.1431 22.1509L11.3262 21.7725L15.0005 15.3516C15.2202 14.9528 15.6759 14.7534 16.3677 14.7534H17.5029C18.3737 14.7534 18.8091 14.9894 18.8091 15.4614V29.353C18.8091 29.8088 18.3737 30.0366 17.5029 30.0366H16.8682C15.9974 30.0366 15.562 29.8088 15.562 29.353V20.3564L15.4766 20.332L12.3271 25.9595C12.14 26.2362 11.8511 26.3745 11.4604 26.3745H10.8379C10.6344 26.3745 10.4635 26.342 10.3252 26.2769C10.1868 26.2036 10.0688 26.0978 9.97119 25.9595L6.80957 20.332L6.72412 20.3564V29.353C6.72412 29.8088 6.29281 30.0366 5.43018 30.0366H4.80762ZM21.1167 30.0366C20.2297 30.0366 19.7861 29.8779 19.7861 29.5605C19.7861 29.471 19.8146 29.3408 19.8716 29.1699L24.6567 15.2173C24.7707 14.908 25.1816 14.7534 25.8896 14.7534H27.0127C27.7207 14.7534 28.1317 14.908 28.2456 15.2173L33.0308 29.1699C33.0715 29.3327 33.0918 29.4629 33.0918 29.5605C33.0918 29.7233 33.0023 29.8454 32.8232 29.9268C32.6523 30 32.3797 30.0366 32.0054 30.0366H31.0532C30.7114 30.0366 30.4347 30.0041 30.2231 29.939C30.0197 29.8657 29.8936 29.7477 29.8447 29.585L28.9658 26.936H23.8511L22.9722 29.585C22.8826 29.8861 22.549 30.0366 21.9712 30.0366H21.1167ZM28.0381 24.0674L26.8052 20.21C26.7319 20.0146 26.6668 19.7909 26.6099 19.5386C26.561 19.2863 26.5163 19.0462 26.4756 18.8184H26.3901L26.3413 19.0869C26.2599 19.5671 26.1663 19.9414 26.0605 20.21L24.7788 24.0674H28.0381ZM33.9224 30.0366C33.0353 30.0366 32.5918 29.8779 32.5918 29.5605C32.5918 29.471 32.6203 29.3408 32.6772 29.1699L37.4624 15.2173C37.5763 14.908 37.9873 14.7534 38.6953 14.7534H39.8184C40.5264 14.7534 40.9373 14.908 41.0513 15.2173L45.8364 29.1699C45.8771 29.3327 45.8975 29.4629 45.8975 29.5605C45.8975 29.7233 45.8079 29.8454 45.6289 29.9268C45.458 30 45.1854 30.0366 44.811 30.0366H43.8589C43.5171 30.0366 43.2404 30.0041 43.0288 29.939C42.8254 29.8657 42.6992 29.7477 42.6504 29.585L41.7715 26.936H36.6567L35.7778 29.585C35.6883 29.8861 35.3547 30.0366 34.7769 30.0366H33.9224ZM40.8438 24.0674L39.6108 20.21C39.5376 20.0146 39.4725 19.7909 39.4155 19.5386C39.3667 19.2863 39.3219 19.0462 39.2812 18.8184H39.1958L39.147 19.0869C39.0656 19.5671 38.972 19.9414 38.8662 20.21L37.5845 24.0674H40.8438ZM46.8379 30C46.7158 30 46.5897 29.882 46.4595 29.646C46.3293 29.41 46.2153 29.1374 46.1177 28.8281C46.0282 28.5107 45.9834 28.2544 45.9834 28.0591C45.9834 28.0184 45.9956 27.9492 46.02 27.8516L53.2954 17.6465H47.2651C47.0373 17.6465 46.8704 17.561 46.7646 17.3901C46.667 17.2192 46.6182 16.9425 46.6182 16.5601V15.9009C46.6182 15.5184 46.667 15.2417 46.7646 15.0708C46.8704 14.8999 47.0373 14.8145 47.2651 14.8145H57.1895C57.2952 14.8145 57.4092 14.9365 57.5312 15.1807C57.6615 15.4248 57.7673 15.7096 57.8486 16.0352C57.9382 16.3525 57.9829 16.6089 57.9829 16.8042C57.9829 16.8937 57.9748 16.9507 57.9585 16.9751L50.7075 27.1558H57.3359C57.5638 27.1558 57.7266 27.2412 57.8242 27.4121C57.93 27.583 57.9829 27.8556 57.9829 28.23V28.9136C57.9829 29.2961 57.93 29.5728 57.8242 29.7437C57.7266 29.9146 57.5638 30 57.3359 30H46.8379Z" fill="black"/>
<path d="M3.81885 14.9365L4.29295 15.817L4.30586 15.81L4.31857 15.8027L3.81885 14.9365ZM7.31006 15.3516L6.42671 15.8203L6.43257 15.8313L6.4387 15.8422L7.31006 15.3516ZM10.96 21.8335L10.0886 22.3242L10.0938 22.3332L10.96 21.8335ZM11.1431 22.1509L10.2769 22.6506L11.2206 24.2865L12.0432 22.5864L11.1431 22.1509ZM11.3262 21.7725L10.4582 21.2758L10.4411 21.3058L10.426 21.3369L11.3262 21.7725ZM15.0005 15.3516L15.8684 15.8482L15.8724 15.8412L15.8763 15.8342L15.0005 15.3516ZM15.562 20.3564H16.562V19.6021L15.8367 19.3949L15.562 20.3564ZM15.4766 20.332L15.7513 19.3705L14.9904 19.1531L14.6039 19.8437L15.4766 20.332ZM12.3271 25.9595L13.1554 26.5198L13.1791 26.4848L13.1998 26.4478L12.3271 25.9595ZM10.3252 26.2769L9.85731 27.1606L9.87811 27.1717L9.8994 27.1817L10.3252 26.2769ZM9.97119 25.9595L9.09936 26.4493L9.12456 26.4941L9.15422 26.5362L9.97119 25.9595ZM6.80957 20.332L7.6814 19.8422L7.29445 19.1535L6.53485 19.3705L6.80957 20.332ZM6.72412 20.3564L6.4494 19.3949L5.72412 19.6021V20.3564H6.72412ZM4.80762 30.0366V29.0366C4.63077 29.0366 4.50014 29.0248 4.40803 29.0088C4.31349 28.9923 4.28333 28.9753 4.2917 28.9797C4.3049 28.9866 4.36897 29.0245 4.42655 29.1149C4.48674 29.2094 4.50146 29.3011 4.50146 29.353H3.50146H2.50146C2.50146 29.6328 2.57061 29.9239 2.73964 30.1893C2.90608 30.4506 3.13341 30.6309 3.36431 30.7517C3.79663 30.978 4.31757 31.0366 4.80762 31.0366V30.0366ZM3.50146 29.353H4.50146V15.4614H3.50146H2.50146V29.353H3.50146ZM3.50146 15.4614H4.50146C4.50146 15.4972 4.49181 15.5792 4.43654 15.6706C4.38186 15.7611 4.31667 15.8042 4.29295 15.817L3.81885 14.9365L3.34475 14.0561C3.10943 14.1828 2.88555 14.3704 2.72508 14.6358C2.56402 14.9021 2.50146 15.1896 2.50146 15.4614H3.50146ZM3.81885 14.9365L4.31857 15.8027C4.29682 15.8153 4.31515 15.7995 4.40682 15.7825C4.49545 15.7661 4.62598 15.7534 4.80762 15.7534V14.7534V13.7534C4.30877 13.7534 3.7627 13.8144 3.31913 14.0703L3.81885 14.9365ZM4.80762 14.7534V15.7534H5.95508V14.7534V13.7534H4.80762V14.7534ZM5.95508 14.7534V15.7534C6.21385 15.7534 6.3504 15.792 6.40878 15.8178C6.43467 15.8292 6.4405 15.836 6.43663 15.8325C6.43505 15.8311 6.43272 15.8287 6.43036 15.8256C6.42925 15.8242 6.42836 15.8229 6.4277 15.8219C6.42737 15.8214 6.42713 15.821 6.42696 15.8207C6.42679 15.8204 6.42671 15.8203 6.42671 15.8203L7.31006 15.3516L8.19341 14.8828C7.72646 14.0028 6.80129 13.7534 5.95508 13.7534V14.7534ZM7.31006 15.3516L6.4387 15.8422L10.0886 22.3241L10.96 21.8335L11.8313 21.3428L8.18141 14.8609L7.31006 15.3516ZM10.96 21.8335L10.0938 22.3332L10.2769 22.6506L11.1431 22.1509L12.0093 21.6512L11.8261 21.3338L10.96 21.8335ZM11.1431 22.1509L12.0432 22.5864L12.2263 22.208L11.3262 21.7725L10.426 21.3369L10.2429 21.7153L11.1431 22.1509ZM11.3262 21.7725L12.1941 22.2691L15.8684 15.8482L15.0005 15.3516L14.1325 14.8549L10.4582 21.2758L11.3262 21.7725ZM15.0005 15.3516L15.8763 15.8342C15.8766 15.8337 15.8745 15.8367 15.8725 15.8385C15.8712 15.8396 15.8798 15.8314 15.9079 15.8191C15.9702 15.7918 16.1094 15.7534 16.3677 15.7534V14.7534V13.7534C15.5179 13.7534 14.6013 14.0039 14.1247 14.869L15.0005 15.3516ZM16.3677 14.7534V15.7534H17.5029V14.7534V13.7534H16.3677V14.7534ZM17.5029 14.7534V15.7534C17.6783 15.7534 17.8068 15.7655 17.8966 15.7817C17.9885 15.7983 18.0162 15.8151 18.006 15.8096C17.9904 15.8011 17.9292 15.7626 17.8756 15.6755C17.8205 15.5859 17.8091 15.5027 17.8091 15.4614H18.8091H19.8091C19.8091 15.1842 19.7432 14.8944 19.5793 14.6278C19.4169 14.3638 19.1924 14.1777 18.9591 14.0513C18.5225 13.8146 17.9959 13.7534 17.5029 13.7534V14.7534ZM18.8091 15.4614H17.8091V29.353H18.8091H19.8091V15.4614H18.8091ZM18.8091 29.353H17.8091C17.8091 29.3011 17.8238 29.2094 17.884 29.1149C17.9416 29.0245 18.0056 28.9866 18.0188 28.9797C18.0272 28.9753 17.9971 28.9923 17.9025 29.0088C17.8104 29.0248 17.6798 29.0366 17.5029 29.0366V30.0366V31.0366C17.993 31.0366 18.5139 30.978 18.9462 30.7517C19.1771 30.6309 19.4045 30.4506 19.5709 30.1893C19.7399 29.9239 19.8091 29.6328 19.8091 29.353H18.8091ZM17.5029 30.0366V29.0366H16.8682V30.0366V31.0366H17.5029V30.0366ZM16.8682 30.0366V29.0366C16.6913 29.0366 16.5607 29.0248 16.4686 29.0088C16.374 28.9923 16.3439 28.9753 16.3522 28.9797C16.3655 28.9866 16.4295 29.0245 16.4871 29.1149C16.5473 29.2094 16.562 29.3011 16.562 29.353H15.562H14.562C14.562 29.6328 14.6312 29.9239 14.8002 30.1893C14.9666 30.4506 15.194 30.6309 15.4249 30.7517C15.8572 30.978 16.3781 31.0366 16.8682 31.0366V30.0366ZM15.562 29.353H16.562V20.3564H15.562H14.562V29.353H15.562ZM15.562 20.3564L15.8367 19.3949L15.7513 19.3705L15.4766 20.332L15.2018 21.2936L15.2873 21.318L15.562 20.3564ZM15.4766 20.332L14.6039 19.8437L11.4545 25.4711L12.3271 25.9595L13.1998 26.4478L16.3492 20.8204L15.4766 20.332ZM12.3271 25.9595L11.4989 25.3992C11.4977 25.4009 11.5012 25.3954 11.5106 25.3873C11.5201 25.379 11.5302 25.3727 11.5382 25.3688C11.5549 25.3608 11.5385 25.3745 11.4604 25.3745V26.3745V27.3745C12.1181 27.3745 12.7486 27.1212 13.1554 26.5198L12.3271 25.9595ZM11.4604 26.3745V25.3745H10.8379V26.3745V27.3745H11.4604V26.3745ZM10.8379 26.3745V25.3745C10.7887 25.3745 10.7587 25.3705 10.7442 25.3678C10.7302 25.3651 10.7346 25.3643 10.751 25.372L10.3252 26.2769L9.8994 27.1817C10.2073 27.3266 10.5336 27.3745 10.8379 27.3745V26.3745ZM10.3252 26.2769L10.7931 25.3931C10.7946 25.3939 10.7963 25.3949 10.7978 25.396C10.7994 25.3971 10.8003 25.3978 10.8005 25.398C10.8011 25.3986 10.7966 25.3947 10.7882 25.3828L9.97119 25.9595L9.15422 26.5362C9.33493 26.7922 9.56894 27.008 9.85731 27.1606L10.3252 26.2769ZM9.97119 25.9595L10.843 25.4697L7.6814 19.8422L6.80957 20.332L5.93774 20.8218L9.09936 26.4493L9.97119 25.9595ZM6.80957 20.332L6.53485 19.3705L6.4494 19.3949L6.72412 20.3564L6.99884 21.318L7.08429 21.2936L6.80957 20.332ZM6.72412 20.3564H5.72412V29.353H6.72412H7.72412V20.3564H6.72412ZM6.72412 29.353H5.72412C5.72412 29.3029 5.73819 29.2125 5.79752 29.1185C5.85454 29.0281 5.91863 28.9894 5.93351 28.9815C5.9434 28.9763 5.91518 28.9928 5.82284 29.0091C5.7329 29.0249 5.60459 29.0366 5.43018 29.0366V30.0366V31.0366C5.91693 31.0366 6.43632 30.9778 6.86776 30.7499C7.0983 30.6281 7.32413 30.447 7.48898 30.1857C7.65613 29.9208 7.72412 29.631 7.72412 29.353H6.72412ZM5.43018 30.0366V29.0366H4.80762V30.0366V31.0366H5.43018V30.0366ZM19.8716 29.1699L18.9256 28.8455L18.9229 28.8537L19.8716 29.1699ZM24.6567 15.2173L23.7184 14.8716L23.7145 14.8822L23.7108 14.8929L24.6567 15.2173ZM28.2456 15.2173L29.1915 14.8929L29.1879 14.8822L29.1839 14.8716L28.2456 15.2173ZM33.0308 29.1699L34.0009 28.9274L33.9905 28.8859L33.9767 28.8455L33.0308 29.1699ZM32.8232 29.9268L33.2172 30.8459L33.2272 30.8416L33.237 30.8371L32.8232 29.9268ZM30.2231 29.939L29.8844 30.8799L29.9066 30.8878L29.9291 30.8947L30.2231 29.939ZM29.8447 29.585L30.8026 29.2976L30.7984 29.2838L30.7938 29.27L29.8447 29.585ZM28.9658 26.936L29.9149 26.6211L29.6876 25.936H28.9658V26.936ZM23.8511 26.936V25.936H23.1293L22.902 26.6211L23.8511 26.936ZM22.9722 29.585L22.023 29.27L22.0181 29.2849L22.0136 29.3L22.9722 29.585ZM28.0381 24.0674V25.0674H29.4075L28.9906 23.7629L28.0381 24.0674ZM26.8052 20.21L27.7577 19.9055L27.7502 19.882L27.7415 19.8588L26.8052 20.21ZM26.6099 19.5386L25.6281 19.7286L25.631 19.7438L25.6344 19.7588L26.6099 19.5386ZM26.4756 18.8184L27.46 18.6426L27.3128 17.8184H26.4756V18.8184ZM26.3901 18.8184V17.8184H25.5556L25.4063 18.6395L26.3901 18.8184ZM26.3413 19.0869L25.3574 18.908L25.3554 18.9198L26.3413 19.0869ZM26.0605 20.21L25.1301 19.8434L25.1202 19.8688L25.1116 19.8946L26.0605 20.21ZM24.7788 24.0674L23.8298 23.7521L23.3928 25.0674H24.7788V24.0674ZM21.1167 30.0366V29.0366C20.9227 29.0366 20.7698 29.0278 20.653 29.0139C20.5327 28.9996 20.4732 28.9823 20.4557 28.9761C20.4326 28.9678 20.5097 28.9892 20.601 29.0872C20.6501 29.14 20.6997 29.2114 20.7356 29.3013C20.7717 29.3917 20.7861 29.4811 20.7861 29.5605H19.7861H18.7861C18.7861 29.8998 18.9145 30.211 19.1376 30.4505C19.3398 30.6675 19.5832 30.7881 19.7819 30.8591C20.169 30.9977 20.6412 31.0366 21.1167 31.0366V30.0366ZM19.7861 29.5605H20.7861C20.7861 29.5898 20.7839 29.6087 20.7832 29.6143C20.7824 29.6205 20.7822 29.6193 20.7844 29.6094C20.789 29.5886 20.7994 29.5488 20.8203 29.4861L19.8716 29.1699L18.9229 28.8537C18.8591 29.0451 18.7861 29.3023 18.7861 29.5605H19.7861ZM19.8716 29.1699L20.8175 29.4943L25.6027 15.5417L24.6567 15.2173L23.7108 14.8929L18.9257 28.8455L19.8716 29.1699ZM24.6567 15.2173L25.5951 15.563C25.5627 15.6508 25.5105 15.7191 25.4601 15.7637C25.4147 15.8038 25.3859 15.8116 25.4026 15.8053C25.4193 15.799 25.4651 15.7849 25.5512 15.773C25.6361 15.7613 25.7475 15.7534 25.8896 15.7534V14.7534V13.7534C25.4799 13.7534 25.064 13.7958 24.6983 13.9334C24.3165 14.0771 23.9064 14.3613 23.7184 14.8716L24.6567 15.2173ZM25.8896 14.7534V15.7534H27.0127V14.7534V13.7534H25.8896V14.7534ZM27.0127 14.7534V15.7534C27.1548 15.7534 27.2663 15.7613 27.3511 15.773C27.4372 15.7849 27.483 15.799 27.4998 15.8053C27.5164 15.8116 27.4876 15.8038 27.4423 15.7637C27.3919 15.7191 27.3396 15.6508 27.3073 15.563L28.2456 15.2173L29.1839 14.8716C28.996 14.3613 28.5858 14.0771 28.2041 13.9334C27.8383 13.7958 27.4225 13.7534 27.0127 13.7534V14.7534ZM28.2456 15.2173L27.2997 15.5417L32.0848 29.4943L33.0308 29.1699L33.9767 28.8455L29.1915 14.8929L28.2456 15.2173ZM33.0308 29.1699L32.0606 29.4125C32.0755 29.4722 32.084 29.5153 32.0885 29.544C32.0933 29.5745 32.0918 29.5777 32.0918 29.5605H33.0918H34.0918C34.0918 29.3432 34.0494 29.1215 34.0009 28.9274L33.0308 29.1699ZM33.0918 29.5605H32.0918C32.0918 29.4462 32.1276 29.3065 32.2183 29.1828C32.3008 29.0703 32.3883 29.026 32.4094 29.0164L32.8232 29.9268L33.237 30.8371C33.4372 30.7462 33.659 30.6001 33.8311 30.3655C34.0113 30.1198 34.0918 29.8377 34.0918 29.5605H33.0918ZM32.8232 29.9268L32.4293 29.0076C32.4566 28.9959 32.4426 29.0066 32.3575 29.0181C32.2778 29.0288 32.1627 29.0366 32.0054 29.0366V30.0366V31.0366C32.4057 31.0366 32.8501 31.0032 33.2172 30.8459L32.8232 29.9268ZM32.0054 30.0366V29.0366H31.0532V30.0366V31.0366H32.0054V30.0366ZM31.0532 30.0366V29.0366C30.7632 29.0366 30.5966 29.0076 30.5172 28.9832L30.2231 29.939L29.9291 30.8947C30.2729 31.0005 30.6597 31.0366 31.0532 31.0366V30.0366ZM30.2231 29.939L30.5619 28.9981C30.5569 28.9963 30.6012 29.0111 30.6591 29.0653C30.7229 29.1249 30.7753 29.2068 30.8026 29.2976L29.8447 29.585L28.8869 29.8723C29.0512 30.4199 29.4725 30.7316 29.8844 30.8799L30.2231 29.939ZM29.8447 29.585L30.7938 29.27L29.9149 26.6211L28.9658 26.936L28.0167 27.251L28.8956 29.8999L29.8447 29.585ZM28.9658 26.936V25.936H23.8511V26.936V27.936H28.9658V26.936ZM23.8511 26.936L22.902 26.6211L22.023 29.27L22.9722 29.585L23.9213 29.8999L24.8002 27.251L23.8511 26.936ZM22.9722 29.585L22.0136 29.3C22.0348 29.2287 22.0746 29.1575 22.1295 29.0988C22.1816 29.0432 22.2284 29.019 22.2435 29.0122C22.2567 29.0062 22.2453 29.0136 22.1958 29.0218C22.1471 29.0298 22.074 29.0366 21.9712 29.0366V30.0366V31.0366C22.3288 31.0366 22.7168 30.9928 23.0661 30.8352C23.4492 30.6623 23.7892 30.3461 23.9307 29.8699L22.9722 29.585ZM21.9712 30.0366V29.0366H21.1167V30.0366V31.0366H21.9712V30.0366ZM28.0381 24.0674L28.9906 23.7629L27.7577 19.9055L26.8052 20.21L25.8526 20.5144L27.0856 24.3718L28.0381 24.0674ZM26.8052 20.21L27.7415 19.8588C27.6875 19.7149 27.6345 19.5362 27.5853 19.3183L26.6099 19.5386L25.6344 19.7588C25.6992 20.0455 25.7763 20.3144 25.8688 20.5611L26.8052 20.21ZM26.6099 19.5386L27.5916 19.3486C27.5436 19.1005 27.4998 18.8652 27.46 18.6426L26.4756 18.8184L25.4912 18.9942C25.5328 19.2272 25.5784 19.4721 25.6281 19.7286L26.6099 19.5386ZM26.4756 18.8184V17.8184H26.3901V18.8184V19.8184H26.4756V18.8184ZM26.3901 18.8184L25.4063 18.6395L25.3574 18.908L26.3413 19.0869L27.3252 19.2658L27.374 18.9972L26.3901 18.8184ZM26.3413 19.0869L25.3554 18.9198C25.2788 19.3714 25.1992 19.6682 25.1301 19.8434L26.0605 20.21L26.991 20.5765C27.1335 20.2146 27.241 19.7627 27.3272 19.254L26.3413 19.0869ZM26.0605 20.21L25.1116 19.8946L23.8298 23.7521L24.7788 24.0674L25.7278 24.3827L27.0095 20.5253L26.0605 20.21ZM24.7788 24.0674V25.0674H28.0381V24.0674V23.0674H24.7788V24.0674ZM32.6772 29.1699L31.7313 28.8455L31.7286 28.8537L32.6772 29.1699ZM37.4624 15.2173L36.5241 14.8716L36.5202 14.8822L36.5165 14.8929L37.4624 15.2173ZM41.0513 15.2173L41.9972 14.8929L41.9935 14.8822L41.9896 14.8716L41.0513 15.2173ZM45.8364 29.1699L46.8066 28.9274L46.7962 28.8859L46.7823 28.8455L45.8364 29.1699ZM45.6289 29.9268L46.0228 30.8459L46.0328 30.8416L46.0427 30.8371L45.6289 29.9268ZM43.0288 29.939L42.6901 30.8799L42.7122 30.8878L42.7347 30.8947L43.0288 29.939ZM42.6504 29.585L43.6082 29.2976L43.6041 29.2838L43.5995 29.27L42.6504 29.585ZM41.7715 26.936L42.7206 26.6211L42.4933 25.936H41.7715V26.936ZM36.6567 26.936V25.936H35.9349L35.7076 26.6211L36.6567 26.936ZM35.7778 29.585L34.8287 29.27L34.8238 29.2849L34.8193 29.3L35.7778 29.585ZM40.8438 24.0674V25.0674H42.2132L41.7963 23.7629L40.8438 24.0674ZM39.6108 20.21L40.5634 19.9055L40.5558 19.882L40.5472 19.8588L39.6108 20.21ZM39.4155 19.5386L38.4337 19.7286L38.4367 19.7438L38.4401 19.7588L39.4155 19.5386ZM39.2812 18.8184L40.2657 18.6426L40.1185 17.8184H39.2812V18.8184ZM39.1958 18.8184V17.8184H38.3612L38.2119 18.6395L39.1958 18.8184ZM39.147 19.0869L38.163 18.908L38.161 18.9198L39.147 19.0869ZM38.8662 20.21L37.9358 19.8434L37.9258 19.8688L37.9172 19.8946L38.8662 20.21ZM37.5845 24.0674L36.6355 23.7521L36.1984 25.0674H37.5845V24.0674ZM33.9224 30.0366V29.0366C33.7283 29.0366 33.5755 29.0278 33.4587 29.0139C33.3384 28.9996 33.2788 28.9823 33.2613 28.9761C33.2382 28.9678 33.3154 28.9892 33.4066 29.0872C33.4558 29.14 33.5054 29.2114 33.5413 29.3013C33.5774 29.3917 33.5918 29.4811 33.5918 29.5605H32.5918H31.5918C31.5918 29.8998 31.7202 30.211 31.9433 30.4505C32.1454 30.6675 32.3889 30.7881 32.5876 30.8591C32.9747 30.9977 33.4468 31.0366 33.9224 31.0366V30.0366ZM32.5918 29.5605H33.5918C33.5918 29.5898 33.5896 29.6087 33.5888 29.6143C33.588 29.6205 33.5879 29.6193 33.5901 29.6094C33.5946 29.5886 33.6051 29.5488 33.6259 29.4861L32.6772 29.1699L31.7286 28.8537C31.6648 29.0451 31.5918 29.3023 31.5918 29.5605H32.5918ZM32.6772 29.1699L33.6232 29.4943L38.4083 15.5417L37.4624 15.2173L36.5165 14.8929L31.7313 28.8455L32.6772 29.1699ZM37.4624 15.2173L38.4007 15.563C38.3684 15.6508 38.3161 15.7191 38.2657 15.7637C38.2204 15.8038 38.1916 15.8116 38.2082 15.8053C38.225 15.799 38.2708 15.7849 38.3569 15.773C38.4417 15.7613 38.5532 15.7534 38.6953 15.7534V14.7534V13.7534C38.2855 13.7534 37.8697 13.7958 37.5039 13.9334C37.1222 14.0771 36.7121 14.3613 36.5241 14.8716L37.4624 15.2173ZM38.6953 14.7534V15.7534H39.8184V14.7534V13.7534H38.6953V14.7534ZM39.8184 14.7534V15.7534C39.9605 15.7534 40.0719 15.7613 40.1568 15.773C40.2429 15.7849 40.2887 15.799 40.3055 15.8053C40.3221 15.8116 40.2933 15.8038 40.2479 15.7637C40.1975 15.7191 40.1453 15.6508 40.1129 15.563L41.0513 15.2173L41.9896 14.8716C41.8016 14.3613 41.3915 14.0771 41.0097 13.9334C40.644 13.7958 40.2281 13.7534 39.8184 13.7534V14.7534ZM41.0513 15.2173L40.1054 15.5417L44.8905 29.4943L45.8364 29.1699L46.7823 28.8455L41.9972 14.8929L41.0513 15.2173ZM45.8364 29.1699L44.8663 29.4125C44.8812 29.4722 44.8897 29.5153 44.8942 29.544C44.8989 29.5745 44.8975 29.5777 44.8975 29.5605H45.8975H46.8975C46.8975 29.3432 46.8551 29.1215 46.8066 28.9274L45.8364 29.1699ZM45.8975 29.5605H44.8975C44.8975 29.4462 44.9332 29.3065 45.0239 29.1828C45.1064 29.0703 45.194 29.026 45.2151 29.0164L45.6289 29.9268L46.0427 30.8371C46.2428 30.7462 46.4647 30.6001 46.6367 30.3655C46.8169 30.1198 46.8975 29.8377 46.8975 29.5605H45.8975ZM45.6289 29.9268L45.235 29.0076C45.2623 28.9959 45.2483 29.0066 45.1631 29.0181C45.0835 29.0288 44.9684 29.0366 44.811 29.0366V30.0366V31.0366C45.2113 31.0366 45.6558 31.0032 46.0228 30.8459L45.6289 29.9268ZM44.811 30.0366V29.0366H43.8589V30.0366V31.0366H44.811V30.0366ZM43.8589 30.0366V29.0366C43.5688 29.0366 43.4022 29.0076 43.3229 28.9832L43.0288 29.939L42.7347 30.8947C43.0786 31.0005 43.4654 31.0366 43.8589 31.0366V30.0366ZM43.0288 29.939L43.3675 28.9981C43.3626 28.9963 43.4069 29.0111 43.4648 29.0653C43.5286 29.1249 43.581 29.2068 43.6082 29.2976L42.6504 29.585L41.6926 29.8723C41.8568 30.4199 42.2782 30.7316 42.6901 30.8799L43.0288 29.939ZM42.6504 29.585L43.5995 29.27L42.7206 26.6211L41.7715 26.936L40.8224 27.251L41.7013 29.8999L42.6504 29.585ZM41.7715 26.936V25.936H36.6567V26.936V27.936H41.7715V26.936ZM36.6567 26.936L35.7076 26.6211L34.8287 29.27L35.7778 29.585L36.727 29.8999L37.6059 27.251L36.6567 26.936ZM35.7778 29.585L34.8193 29.3C34.8405 29.2287 34.8802 29.1575 34.9352 29.0988C34.9873 29.0432 35.034 29.019 35.0492 29.0122C35.0624 29.0062 35.051 29.0136 35.0015 29.0218C34.9528 29.0298 34.8796 29.0366 34.7769 29.0366V30.0366V31.0366C35.1344 31.0366 35.5224 30.9928 35.8717 30.8352C36.2549 30.6623 36.5948 30.3461 36.7364 29.8699L35.7778 29.585ZM34.7769 30.0366V29.0366H33.9224V30.0366V31.0366H34.7769V30.0366ZM40.8438 24.0674L41.7963 23.7629L40.5634 19.9055L39.6108 20.21L38.6583 20.5144L39.8912 24.3718L40.8438 24.0674ZM39.6108 20.21L40.5472 19.8588C40.4932 19.7149 40.4402 19.5362 40.391 19.3183L39.4155 19.5386L38.4401 19.7588C38.5048 20.0455 38.582 20.3144 38.6745 20.5611L39.6108 20.21ZM39.4155 19.5386L40.3973 19.3486C40.3493 19.1005 40.3054 18.8652 40.2657 18.6426L39.2812 18.8184L38.2968 18.9942C38.3384 19.2272 38.3841 19.4721 38.4337 19.7286L39.4155 19.5386ZM39.2812 18.8184V17.8184H39.1958V18.8184V19.8184H39.2812V18.8184ZM39.1958 18.8184L38.2119 18.6395L38.1631 18.908L39.147 19.0869L40.1308 19.2658L40.1797 18.9972L39.1958 18.8184ZM39.147 19.0869L38.161 18.9198C38.0845 19.3714 38.0048 19.6682 37.9358 19.8434L38.8662 20.21L39.7966 20.5765C39.9392 20.2146 40.0467 19.7627 40.1329 19.254L39.147 19.0869ZM38.8662 20.21L37.9172 19.8946L36.6355 23.7521L37.5845 24.0674L38.5335 24.3827L39.8152 20.5253L38.8662 20.21ZM37.5845 24.0674V25.0674H40.8438V24.0674V23.0674H37.5845V24.0674ZM46.4595 29.646L45.5839 30.1291L46.4595 29.646ZM46.1177 28.8281L45.1552 29.0996L45.1594 29.1145L45.1641 29.1293L46.1177 28.8281ZM46.02 27.8516L45.2058 27.2711L45.0958 27.4253L45.0499 27.609L46.02 27.8516ZM53.2954 17.6465L54.1097 18.227L55.2364 16.6465H53.2954V17.6465ZM46.7646 17.3901L45.8964 17.8863L45.9051 17.9015L45.9144 17.9165L46.7646 17.3901ZM46.7646 15.0708L45.9144 14.5444L45.9051 14.5594L45.8964 14.5747L46.7646 15.0708ZM57.5312 15.1807L56.6368 15.6279L56.6427 15.6396L56.6489 15.6513L57.5312 15.1807ZM57.8486 16.0352L56.8785 16.2777L56.8821 16.2922L56.8862 16.3066L57.8486 16.0352ZM57.9585 16.9751L58.773 17.5552L58.782 17.5426L58.7905 17.5298L57.9585 16.9751ZM50.7075 27.1558L49.893 26.5756L48.7676 28.1558H50.7075V27.1558ZM57.8242 27.4121L56.956 27.9082L56.9647 27.9235L56.974 27.9385L57.8242 27.4121ZM57.8242 29.7437L56.974 29.2173L56.9647 29.2322L56.956 29.2475L57.8242 29.7437ZM46.8379 30V29C47.1193 29 47.2896 29.1389 47.3349 29.1812C47.379 29.2225 47.3745 29.2344 47.3351 29.1629L46.4595 29.646L45.5839 30.1291C45.6747 30.2936 45.7983 30.4825 45.9686 30.6418C46.14 30.8021 46.4345 31 46.8379 31V30ZM46.4595 29.646L47.3351 29.1629C47.2425 28.9951 47.1529 28.7854 47.0713 28.527L46.1177 28.8281L45.1641 29.1293C45.2778 29.4893 45.4161 29.8249 45.5839 30.1291L46.4595 29.646ZM46.1177 28.8281L47.0801 28.5567C47.0009 28.2759 46.9834 28.1211 46.9834 28.0591H45.9834H44.9834C44.9834 28.3877 45.0554 28.7456 45.1552 29.0996L46.1177 28.8281ZM45.9834 28.0591H46.9834C46.9834 28.0786 46.9827 28.0946 46.9819 28.1062C46.9812 28.118 46.9803 28.1273 46.9796 28.1337C46.9782 28.1459 46.9771 28.1521 46.9773 28.1505C46.9775 28.1493 46.9785 28.144 46.9807 28.1339C46.9829 28.1239 46.986 28.1108 46.9902 28.0941L46.02 27.8516L45.0499 27.609C45.0262 27.7036 44.9834 27.8814 44.9834 28.0591H45.9834ZM46.02 27.8516L46.8343 28.4321L54.1097 18.227L53.2954 17.6465L52.4812 17.066L45.2058 27.2711L46.02 27.8516ZM53.2954 17.6465V16.6465H47.2651V17.6465V18.6465H53.2954V17.6465ZM47.2651 17.6465V16.6465C47.276 16.6465 47.3401 16.6488 47.425 16.6924C47.5155 16.7387 47.5791 16.806 47.6149 16.8638L46.7646 17.3901L45.9144 17.9165C46.2296 18.4257 46.7459 18.6465 47.2651 18.6465V17.6465ZM46.7646 17.3901L47.6329 16.894C47.6599 16.9413 47.6518 16.95 47.6396 16.8807C47.6282 16.816 47.6182 16.7123 47.6182 16.5601H46.6182H45.6182C45.6182 16.9809 45.6637 17.479 45.8964 17.8863L46.7646 17.3901ZM46.6182 16.5601H47.6182V15.9009H46.6182H45.6182V16.5601H46.6182ZM46.6182 15.9009H47.6182C47.6182 15.7486 47.6282 15.6449 47.6396 15.5803C47.6518 15.5109 47.6599 15.5196 47.6329 15.5669L46.7646 15.0708L45.8964 14.5747C45.6637 14.982 45.6182 15.4801 45.6182 15.9009H46.6182ZM46.7646 15.0708L47.6149 15.5972C47.5791 15.655 47.5155 15.7222 47.425 15.7686C47.3401 15.8121 47.276 15.8145 47.2651 15.8145V14.8145V13.8145C46.7459 13.8145 46.2296 14.0352 45.9144 14.5444L46.7646 15.0708ZM47.2651 14.8145V15.8145H57.1895V14.8145V13.8145H47.2651V14.8145ZM57.1895 14.8145V15.8145C56.8399 15.8145 56.6484 15.6153 56.6232 15.5883C56.5866 15.5491 56.5952 15.5446 56.6368 15.6279L57.5312 15.1807L58.4257 14.7335C58.3452 14.5726 58.2359 14.385 58.0853 14.2237C57.9462 14.0747 57.6448 13.8145 57.1895 13.8145V14.8145ZM57.5312 15.1807L56.6489 15.6513C56.7335 15.8099 56.8129 16.0153 56.8785 16.2777L57.8486 16.0352L58.8188 15.7926C58.7216 15.4039 58.5894 15.0397 58.4136 14.7101L57.5312 15.1807ZM57.8486 16.0352L56.8862 16.3066C56.9654 16.5874 56.9829 16.7422 56.9829 16.8042H57.9829H58.9829C58.9829 16.4756 58.9109 16.1177 58.8111 15.7637L57.8486 16.0352ZM57.9829 16.8042H56.9829C56.9829 16.8245 56.9816 16.8092 56.9869 16.7726C56.9896 16.7536 56.9961 16.7143 57.0114 16.6633C57.0252 16.6172 57.057 16.5245 57.1264 16.4204L57.9585 16.9751L58.7905 17.5298C58.9282 17.3234 58.9581 17.1163 58.9668 17.0555C58.9801 16.9619 58.9829 16.8734 58.9829 16.8042H57.9829ZM57.9585 16.9751L57.144 16.395L49.893 26.5756L50.7075 27.1558L51.522 27.7359L58.773 17.5552L57.9585 16.9751ZM50.7075 27.1558V28.1558H57.3359V27.1558V26.1558H50.7075V27.1558ZM57.3359 27.1558V28.1558C57.3261 28.1558 57.2564 28.1537 57.1641 28.1052C57.0646 28.053 56.9948 27.9761 56.956 27.9082L57.8242 27.4121L58.6925 26.916C58.3855 26.3789 57.855 26.1558 57.3359 26.1558V27.1558ZM57.8242 27.4121L56.974 27.9385C56.9438 27.8897 56.95 27.8757 56.9615 27.9352C56.9725 27.9914 56.9829 28.0862 56.9829 28.23H57.9829H58.9829C58.9829 27.8059 58.9311 27.3003 58.6745 26.8858L57.8242 27.4121ZM57.9829 28.23H56.9829V28.9136H57.9829H58.9829V28.23H57.9829ZM57.9829 28.9136H56.9829C56.9829 29.0625 56.9723 29.1612 56.961 29.2202C56.949 29.2831 56.9424 29.2683 56.974 29.2173L57.8242 29.7437L58.6745 30.27C58.9325 29.8532 58.9829 29.3409 58.9829 28.9136H57.9829ZM57.8242 29.7437L56.956 29.2475C56.9948 29.1796 57.0646 29.1028 57.1641 29.0505C57.2564 29.002 57.3261 29 57.3359 29V30V31C57.855 31 58.3855 30.7769 58.6925 30.2398L57.8242 29.7437ZM57.3359 30V29H46.8379V30V31H57.3359V30Z" fill="black" mask="url(#path-1-outside-1_640_359)"/>
<g filter="url(#filter0_d_640_359)">
<mask id="path-3-outside-2_640_359" maskUnits="userSpaceOnUse" x="4" y="12" width="57" height="19" fill="black">
<rect fill="white" x="4" y="12" width="57" height="19"/>
<path d="M6.80762 29.0366C5.93685 29.0366 5.50146 28.8088 5.50146 28.353V14.4614C5.50146 14.2254 5.60726 14.0505 5.81885 13.9365C6.03044 13.8145 6.36003 13.7534 6.80762 13.7534H7.95508C8.64681 13.7534 9.09847 13.9528 9.31006 14.3516L12.96 20.8335L13.1431 21.1509L13.3262 20.7725L17.0005 14.3516C17.2202 13.9528 17.6759 13.7534 18.3677 13.7534H19.5029C20.3737 13.7534 20.8091 13.9894 20.8091 14.4614V28.353C20.8091 28.8088 20.3737 29.0366 19.5029 29.0366H18.8682C17.9974 29.0366 17.562 28.8088 17.562 28.353V19.3564L17.4766 19.332L14.3271 24.9595C14.14 25.2362 13.8511 25.3745 13.4604 25.3745H12.8379C12.6344 25.3745 12.4635 25.342 12.3252 25.2769C12.1868 25.2036 12.0688 25.0978 11.9712 24.9595L8.80957 19.332L8.72412 19.3564V28.353C8.72412 28.8088 8.29281 29.0366 7.43018 29.0366H6.80762ZM23.1167 29.0366C22.2297 29.0366 21.7861 28.8779 21.7861 28.5605C21.7861 28.471 21.8146 28.3408 21.8716 28.1699L26.6567 14.2173C26.7707 13.908 27.1816 13.7534 27.8896 13.7534H29.0127C29.7207 13.7534 30.1317 13.908 30.2456 14.2173L35.0308 28.1699C35.0715 28.3327 35.0918 28.4629 35.0918 28.5605C35.0918 28.7233 35.0023 28.8454 34.8232 28.9268C34.6523 29 34.3797 29.0366 34.0054 29.0366H33.0532C32.7114 29.0366 32.4347 29.0041 32.2231 28.939C32.0197 28.8657 31.8936 28.7477 31.8447 28.585L30.9658 25.936H25.8511L24.9722 28.585C24.8826 28.8861 24.549 29.0366 23.9712 29.0366H23.1167ZM30.0381 23.0674L28.8052 19.21C28.7319 19.0146 28.6668 18.7909 28.6099 18.5386C28.561 18.2863 28.5163 18.0462 28.4756 17.8184H28.3901L28.3413 18.0869C28.2599 18.5671 28.1663 18.9414 28.0605 19.21L26.7788 23.0674H30.0381ZM35.9224 29.0366C35.0353 29.0366 34.5918 28.8779 34.5918 28.5605C34.5918 28.471 34.6203 28.3408 34.6772 28.1699L39.4624 14.2173C39.5763 13.908 39.9873 13.7534 40.6953 13.7534H41.8184C42.5264 13.7534 42.9373 13.908 43.0513 14.2173L47.8364 28.1699C47.8771 28.3327 47.8975 28.4629 47.8975 28.5605C47.8975 28.7233 47.8079 28.8454 47.6289 28.9268C47.458 29 47.1854 29.0366 46.811 29.0366H45.8589C45.5171 29.0366 45.2404 29.0041 45.0288 28.939C44.8254 28.8657 44.6992 28.7477 44.6504 28.585L43.7715 25.936H38.6567L37.7778 28.585C37.6883 28.8861 37.3547 29.0366 36.7769 29.0366H35.9224ZM42.8438 23.0674L41.6108 19.21C41.5376 19.0146 41.4725 18.7909 41.4155 18.5386C41.3667 18.2863 41.3219 18.0462 41.2812 17.8184H41.1958L41.147 18.0869C41.0656 18.5671 40.972 18.9414 40.8662 19.21L39.5845 23.0674H42.8438ZM48.8379 29C48.7158 29 48.5897 28.882 48.4595 28.646C48.3293 28.41 48.2153 28.1374 48.1177 27.8281C48.0282 27.5107 47.9834 27.2544 47.9834 27.0591C47.9834 27.0184 47.9956 26.9492 48.02 26.8516L55.2954 16.6465H49.2651C49.0373 16.6465 48.8704 16.561 48.7646 16.3901C48.667 16.2192 48.6182 15.9425 48.6182 15.5601V14.9009C48.6182 14.5184 48.667 14.2417 48.7646 14.0708C48.8704 13.8999 49.0373 13.8145 49.2651 13.8145H59.1895C59.2952 13.8145 59.4092 13.9365 59.5312 14.1807C59.6615 14.4248 59.7673 14.7096 59.8486 15.0352C59.9382 15.3525 59.9829 15.6089 59.9829 15.8042C59.9829 15.8937 59.9748 15.9507 59.9585 15.9751L52.7075 26.1558H59.3359C59.5638 26.1558 59.7266 26.2412 59.8242 26.4121C59.93 26.583 59.9829 26.8556 59.9829 27.23V27.9136C59.9829 28.2961 59.93 28.5728 59.8242 28.7437C59.7266 28.9146 59.5638 29 59.3359 29H48.8379Z"/>
</mask>
<path d="M6.80762 29.0366C5.93685 29.0366 5.50146 28.8088 5.50146 28.353V14.4614C5.50146 14.2254 5.60726 14.0505 5.81885 13.9365C6.03044 13.8145 6.36003 13.7534 6.80762 13.7534H7.95508C8.64681 13.7534 9.09847 13.9528 9.31006 14.3516L12.96 20.8335L13.1431 21.1509L13.3262 20.7725L17.0005 14.3516C17.2202 13.9528 17.6759 13.7534 18.3677 13.7534H19.5029C20.3737 13.7534 20.8091 13.9894 20.8091 14.4614V28.353C20.8091 28.8088 20.3737 29.0366 19.5029 29.0366H18.8682C17.9974 29.0366 17.562 28.8088 17.562 28.353V19.3564L17.4766 19.332L14.3271 24.9595C14.14 25.2362 13.8511 25.3745 13.4604 25.3745H12.8379C12.6344 25.3745 12.4635 25.342 12.3252 25.2769C12.1868 25.2036 12.0688 25.0978 11.9712 24.9595L8.80957 19.332L8.72412 19.3564V28.353C8.72412 28.8088 8.29281 29.0366 7.43018 29.0366H6.80762ZM23.1167 29.0366C22.2297 29.0366 21.7861 28.8779 21.7861 28.5605C21.7861 28.471 21.8146 28.3408 21.8716 28.1699L26.6567 14.2173C26.7707 13.908 27.1816 13.7534 27.8896 13.7534H29.0127C29.7207 13.7534 30.1317 13.908 30.2456 14.2173L35.0308 28.1699C35.0715 28.3327 35.0918 28.4629 35.0918 28.5605C35.0918 28.7233 35.0023 28.8454 34.8232 28.9268C34.6523 29 34.3797 29.0366 34.0054 29.0366H33.0532C32.7114 29.0366 32.4347 29.0041 32.2231 28.939C32.0197 28.8657 31.8936 28.7477 31.8447 28.585L30.9658 25.936H25.8511L24.9722 28.585C24.8826 28.8861 24.549 29.0366 23.9712 29.0366H23.1167ZM30.0381 23.0674L28.8052 19.21C28.7319 19.0146 28.6668 18.7909 28.6099 18.5386C28.561 18.2863 28.5163 18.0462 28.4756 17.8184H28.3901L28.3413 18.0869C28.2599 18.5671 28.1663 18.9414 28.0605 19.21L26.7788 23.0674H30.0381ZM35.9224 29.0366C35.0353 29.0366 34.5918 28.8779 34.5918 28.5605C34.5918 28.471 34.6203 28.3408 34.6772 28.1699L39.4624 14.2173C39.5763 13.908 39.9873 13.7534 40.6953 13.7534H41.8184C42.5264 13.7534 42.9373 13.908 43.0513 14.2173L47.8364 28.1699C47.8771 28.3327 47.8975 28.4629 47.8975 28.5605C47.8975 28.7233 47.8079 28.8454 47.6289 28.9268C47.458 29 47.1854 29.0366 46.811 29.0366H45.8589C45.5171 29.0366 45.2404 29.0041 45.0288 28.939C44.8254 28.8657 44.6992 28.7477 44.6504 28.585L43.7715 25.936H38.6567L37.7778 28.585C37.6883 28.8861 37.3547 29.0366 36.7769 29.0366H35.9224ZM42.8438 23.0674L41.6108 19.21C41.5376 19.0146 41.4725 18.7909 41.4155 18.5386C41.3667 18.2863 41.3219 18.0462 41.2812 17.8184H41.1958L41.147 18.0869C41.0656 18.5671 40.972 18.9414 40.8662 19.21L39.5845 23.0674H42.8438ZM48.8379 29C48.7158 29 48.5897 28.882 48.4595 28.646C48.3293 28.41 48.2153 28.1374 48.1177 27.8281C48.0282 27.5107 47.9834 27.2544 47.9834 27.0591C47.9834 27.0184 47.9956 26.9492 48.02 26.8516L55.2954 16.6465H49.2651C49.0373 16.6465 48.8704 16.561 48.7646 16.3901C48.667 16.2192 48.6182 15.9425 48.6182 15.5601V14.9009C48.6182 14.5184 48.667 14.2417 48.7646 14.0708C48.8704 13.8999 49.0373 13.8145 49.2651 13.8145H59.1895C59.2952 13.8145 59.4092 13.9365 59.5312 14.1807C59.6615 14.4248 59.7673 14.7096 59.8486 15.0352C59.9382 15.3525 59.9829 15.6089 59.9829 15.8042C59.9829 15.8937 59.9748 15.9507 59.9585 15.9751L52.7075 26.1558H59.3359C59.5638 26.1558 59.7266 26.2412 59.8242 26.4121C59.93 26.583 59.9829 26.8556 59.9829 27.23V27.9136C59.9829 28.2961 59.93 28.5728 59.8242 28.7437C59.7266 28.9146 59.5638 29 59.3359 29H48.8379Z" fill="white"/>
<path d="M5.81885 13.9365L6.29295 14.817L6.30586 14.81L6.31857 14.8027L5.81885 13.9365ZM9.31006 14.3516L8.42671 14.8203L8.43257 14.8313L8.4387 14.8422L9.31006 14.3516ZM12.96 20.8335L12.0886 21.3242L12.0938 21.3332L12.96 20.8335ZM13.1431 21.1509L12.2769 21.6506L13.2206 23.2865L14.0432 21.5864L13.1431 21.1509ZM13.3262 20.7725L12.4582 20.2758L12.4411 20.3058L12.426 20.3369L13.3262 20.7725ZM17.0005 14.3516L17.8684 14.8482L17.8724 14.8412L17.8763 14.8342L17.0005 14.3516ZM17.562 19.3564H18.562V18.6021L17.8367 18.3949L17.562 19.3564ZM17.4766 19.332L17.7513 18.3705L16.9904 18.1531L16.6039 18.8437L17.4766 19.332ZM14.3271 24.9595L15.1554 25.5198L15.1791 25.4848L15.1998 25.4478L14.3271 24.9595ZM12.3252 25.2769L11.8573 26.1606L11.8781 26.1717L11.8994 26.1817L12.3252 25.2769ZM11.9712 24.9595L11.0994 25.4493L11.1246 25.4941L11.1542 25.5362L11.9712 24.9595ZM8.80957 19.332L9.6814 18.8422L9.29445 18.1535L8.53485 18.3705L8.80957 19.332ZM8.72412 19.3564L8.4494 18.3949L7.72412 18.6021V19.3564H8.72412ZM6.80762 29.0366V28.0366C6.63077 28.0366 6.50014 28.0248 6.40803 28.0088C6.31349 27.9923 6.28333 27.9753 6.2917 27.9797C6.3049 27.9866 6.36897 28.0245 6.42655 28.1149C6.48674 28.2094 6.50146 28.3011 6.50146 28.353H5.50146H4.50146C4.50146 28.6328 4.57061 28.9239 4.73964 29.1893C4.90608 29.4506 5.13341 29.6309 5.36431 29.7517C5.79663 29.978 6.31757 30.0366 6.80762 30.0366V29.0366ZM5.50146 28.353H6.50146V14.4614H5.50146H4.50146V28.353H5.50146ZM5.50146 14.4614H6.50146C6.50146 14.4972 6.49181 14.5792 6.43654 14.6706C6.38186 14.7611 6.31667 14.8042 6.29295 14.817L5.81885 13.9365L5.34475 13.0561C5.10943 13.1828 4.88555 13.3704 4.72508 13.6358C4.56402 13.9021 4.50146 14.1896 4.50146 14.4614H5.50146ZM5.81885 13.9365L6.31857 14.8027C6.29682 14.8153 6.31515 14.7995 6.40682 14.7825C6.49545 14.7661 6.62598 14.7534 6.80762 14.7534V13.7534V12.7534C6.30877 12.7534 5.7627 12.8144 5.31913 13.0703L5.81885 13.9365ZM6.80762 13.7534V14.7534H7.95508V13.7534V12.7534H6.80762V13.7534ZM7.95508 13.7534V14.7534C8.21385 14.7534 8.3504 14.792 8.40878 14.8178C8.43467 14.8292 8.4405 14.836 8.43663 14.8325C8.43505 14.8311 8.43272 14.8287 8.43036 14.8256C8.42925 14.8242 8.42836 14.8229 8.4277 14.8219C8.42737 14.8214 8.42713 14.821 8.42696 14.8207C8.42679 14.8204 8.42671 14.8203 8.42671 14.8203L9.31006 14.3516L10.1934 13.8828C9.72646 13.0028 8.80129 12.7534 7.95508 12.7534V13.7534ZM9.31006 14.3516L8.4387 14.8422L12.0886 21.3241L12.96 20.8335L13.8313 20.3428L10.1814 13.8609L9.31006 14.3516ZM12.96 20.8335L12.0938 21.3332L12.2769 21.6506L13.1431 21.1509L14.0093 20.6512L13.8261 20.3338L12.96 20.8335ZM13.1431 21.1509L14.0432 21.5864L14.2263 21.208L13.3262 20.7725L12.426 20.3369L12.2429 20.7153L13.1431 21.1509ZM13.3262 20.7725L14.1941 21.2691L17.8684 14.8482L17.0005 14.3516L16.1325 13.8549L12.4582 20.2758L13.3262 20.7725ZM17.0005 14.3516L17.8763 14.8342C17.8766 14.8337 17.8745 14.8367 17.8725 14.8385C17.8712 14.8396 17.8798 14.8314 17.9079 14.8191C17.9702 14.7918 18.1094 14.7534 18.3677 14.7534V13.7534V12.7534C17.5179 12.7534 16.6013 13.0039 16.1247 13.869L17.0005 14.3516ZM18.3677 13.7534V14.7534H19.5029V13.7534V12.7534H18.3677V13.7534ZM19.5029 13.7534V14.7534C19.6783 14.7534 19.8068 14.7655 19.8966 14.7817C19.9885 14.7983 20.0162 14.8151 20.006 14.8096C19.9904 14.8011 19.9292 14.7626 19.8756 14.6755C19.8205 14.5859 19.8091 14.5027 19.8091 14.4614H20.8091H21.8091C21.8091 14.1842 21.7432 13.8944 21.5793 13.6278C21.4169 13.3638 21.1924 13.1777 20.9591 13.0513C20.5225 12.8146 19.9959 12.7534 19.5029 12.7534V13.7534ZM20.8091 14.4614H19.8091V28.353H20.8091H21.8091V14.4614H20.8091ZM20.8091 28.353H19.8091C19.8091 28.3011 19.8238 28.2094 19.884 28.1149C19.9416 28.0245 20.0056 27.9866 20.0188 27.9797C20.0272 27.9753 19.9971 27.9923 19.9025 28.0088C19.8104 28.0248 19.6798 28.0366 19.5029 28.0366V29.0366V30.0366C19.993 30.0366 20.5139 29.978 20.9462 29.7517C21.1771 29.6309 21.4045 29.4506 21.5709 29.1893C21.7399 28.9239 21.8091 28.6328 21.8091 28.353H20.8091ZM19.5029 29.0366V28.0366H18.8682V29.0366V30.0366H19.5029V29.0366ZM18.8682 29.0366V28.0366C18.6913 28.0366 18.5607 28.0248 18.4686 28.0088C18.374 27.9923 18.3439 27.9753 18.3522 27.9797C18.3655 27.9866 18.4295 28.0245 18.4871 28.1149C18.5473 28.2094 18.562 28.3011 18.562 28.353H17.562H16.562C16.562 28.6328 16.6312 28.9239 16.8002 29.1893C16.9666 29.4506 17.194 29.6309 17.4249 29.7517C17.8572 29.978 18.3781 30.0366 18.8682 30.0366V29.0366ZM17.562 28.353H18.562V19.3564H17.562H16.562V28.353H17.562ZM17.562 19.3564L17.8367 18.3949L17.7513 18.3705L17.4766 19.332L17.2018 20.2936L17.2873 20.318L17.562 19.3564ZM17.4766 19.332L16.6039 18.8437L13.4545 24.4711L14.3271 24.9595L15.1998 25.4478L18.3492 19.8204L17.4766 19.332ZM14.3271 24.9595L13.4989 24.3992C13.4977 24.4009 13.5012 24.3954 13.5106 24.3873C13.5201 24.379 13.5302 24.3727 13.5382 24.3688C13.5549 24.3608 13.5385 24.3745 13.4604 24.3745V25.3745V26.3745C14.1181 26.3745 14.7486 26.1212 15.1554 25.5198L14.3271 24.9595ZM13.4604 25.3745V24.3745H12.8379V25.3745V26.3745H13.4604V25.3745ZM12.8379 25.3745V24.3745C12.7887 24.3745 12.7587 24.3705 12.7442 24.3678C12.7302 24.3651 12.7346 24.3643 12.751 24.372L12.3252 25.2769L11.8994 26.1817C12.2073 26.3266 12.5336 26.3745 12.8379 26.3745V25.3745ZM12.3252 25.2769L12.7931 24.3931C12.7946 24.3939 12.7963 24.3949 12.7978 24.396C12.7994 24.3971 12.8003 24.3978 12.8005 24.398C12.8011 24.3986 12.7966 24.3947 12.7882 24.3828L11.9712 24.9595L11.1542 25.5362C11.3349 25.7922 11.5689 26.008 11.8573 26.1606L12.3252 25.2769ZM11.9712 24.9595L12.843 24.4697L9.6814 18.8422L8.80957 19.332L7.93774 19.8218L11.0994 25.4493L11.9712 24.9595ZM8.80957 19.332L8.53485 18.3705L8.4494 18.3949L8.72412 19.3564L8.99884 20.318L9.08429 20.2936L8.80957 19.332ZM8.72412 19.3564H7.72412V28.353H8.72412H9.72412V19.3564H8.72412ZM8.72412 28.353H7.72412C7.72412 28.3029 7.73819 28.2125 7.79752 28.1185C7.85454 28.0281 7.91863 27.9894 7.93351 27.9815C7.9434 27.9763 7.91518 27.9928 7.82284 28.0091C7.7329 28.0249 7.60459 28.0366 7.43018 28.0366V29.0366V30.0366C7.91693 30.0366 8.43632 29.9778 8.86776 29.7499C9.0983 29.6281 9.32413 29.447 9.48898 29.1857C9.65613 28.9208 9.72412 28.631 9.72412 28.353H8.72412ZM7.43018 29.0366V28.0366H6.80762V29.0366V30.0366H7.43018V29.0366ZM21.8716 28.1699L20.9256 27.8455L20.9229 27.8537L21.8716 28.1699ZM26.6567 14.2173L25.7184 13.8716L25.7145 13.8822L25.7108 13.8929L26.6567 14.2173ZM30.2456 14.2173L31.1915 13.8929L31.1879 13.8822L31.1839 13.8716L30.2456 14.2173ZM35.0308 28.1699L36.0009 27.9274L35.9905 27.8859L35.9767 27.8455L35.0308 28.1699ZM34.8232 28.9268L35.2172 29.8459L35.2272 29.8416L35.237 29.8371L34.8232 28.9268ZM32.2231 28.939L31.8844 29.8799L31.9066 29.8878L31.9291 29.8947L32.2231 28.939ZM31.8447 28.585L32.8026 28.2976L32.7984 28.2838L32.7938 28.27L31.8447 28.585ZM30.9658 25.936L31.9149 25.6211L31.6876 24.936H30.9658V25.936ZM25.8511 25.936V24.936H25.1293L24.902 25.6211L25.8511 25.936ZM24.9722 28.585L24.023 28.27L24.0181 28.2849L24.0136 28.3L24.9722 28.585ZM30.0381 23.0674V24.0674H31.4075L30.9906 22.7629L30.0381 23.0674ZM28.8052 19.21L29.7577 18.9055L29.7502 18.882L29.7415 18.8588L28.8052 19.21ZM28.6099 18.5386L27.6281 18.7286L27.631 18.7438L27.6344 18.7588L28.6099 18.5386ZM28.4756 17.8184L29.46 17.6426L29.3128 16.8184H28.4756V17.8184ZM28.3901 17.8184V16.8184H27.5556L27.4063 17.6395L28.3901 17.8184ZM28.3413 18.0869L27.3574 17.908L27.3554 17.9198L28.3413 18.0869ZM28.0605 19.21L27.1301 18.8434L27.1202 18.8688L27.1116 18.8946L28.0605 19.21ZM26.7788 23.0674L25.8298 22.7521L25.3928 24.0674H26.7788V23.0674ZM23.1167 29.0366V28.0366C22.9227 28.0366 22.7698 28.0278 22.653 28.0139C22.5327 27.9996 22.4732 27.9823 22.4557 27.9761C22.4326 27.9678 22.5097 27.9892 22.601 28.0872C22.6501 28.14 22.6997 28.2114 22.7356 28.3013C22.7717 28.3917 22.7861 28.4811 22.7861 28.5605H21.7861H20.7861C20.7861 28.8998 20.9145 29.211 21.1376 29.4505C21.3398 29.6675 21.5832 29.7881 21.7819 29.8591C22.169 29.9977 22.6412 30.0366 23.1167 30.0366V29.0366ZM21.7861 28.5605H22.7861C22.7861 28.5898 22.7839 28.6087 22.7832 28.6143C22.7824 28.6205 22.7822 28.6193 22.7844 28.6094C22.789 28.5886 22.7994 28.5488 22.8203 28.4861L21.8716 28.1699L20.9229 27.8537C20.8591 28.0451 20.7861 28.3023 20.7861 28.5605H21.7861ZM21.8716 28.1699L22.8175 28.4943L27.6027 14.5417L26.6567 14.2173L25.7108 13.8929L20.9257 27.8455L21.8716 28.1699ZM26.6567 14.2173L27.5951 14.563C27.5627 14.6508 27.5105 14.7191 27.4601 14.7637C27.4147 14.8038 27.3859 14.8116 27.4026 14.8053C27.4193 14.799 27.4651 14.7849 27.5512 14.773C27.6361 14.7613 27.7475 14.7534 27.8896 14.7534V13.7534V12.7534C27.4799 12.7534 27.064 12.7958 26.6983 12.9334C26.3165 13.0771 25.9064 13.3613 25.7184 13.8716L26.6567 14.2173ZM27.8896 13.7534V14.7534H29.0127V13.7534V12.7534H27.8896V13.7534ZM29.0127 13.7534V14.7534C29.1548 14.7534 29.2663 14.7613 29.3511 14.773C29.4372 14.7849 29.483 14.799 29.4998 14.8053C29.5164 14.8116 29.4876 14.8038 29.4423 14.7637C29.3919 14.7191 29.3396 14.6508 29.3073 14.563L30.2456 14.2173L31.1839 13.8716C30.996 13.3613 30.5858 13.0771 30.2041 12.9334C29.8383 12.7958 29.4225 12.7534 29.0127 12.7534V13.7534ZM30.2456 14.2173L29.2997 14.5417L34.0848 28.4943L35.0308 28.1699L35.9767 27.8455L31.1915 13.8929L30.2456 14.2173ZM35.0308 28.1699L34.0606 28.4125C34.0755 28.4722 34.084 28.5153 34.0885 28.544C34.0933 28.5745 34.0918 28.5777 34.0918 28.5605H35.0918H36.0918C36.0918 28.3432 36.0494 28.1215 36.0009 27.9274L35.0308 28.1699ZM35.0918 28.5605H34.0918C34.0918 28.4462 34.1276 28.3065 34.2183 28.1828C34.3008 28.0703 34.3883 28.026 34.4094 28.0164L34.8232 28.9268L35.237 29.8371C35.4372 29.7462 35.659 29.6001 35.8311 29.3655C36.0113 29.1198 36.0918 28.8377 36.0918 28.5605H35.0918ZM34.8232 28.9268L34.4293 28.0076C34.4566 27.9959 34.4426 28.0066 34.3575 28.0181C34.2778 28.0288 34.1627 28.0366 34.0054 28.0366V29.0366V30.0366C34.4057 30.0366 34.8501 30.0032 35.2172 29.8459L34.8232 28.9268ZM34.0054 29.0366V28.0366H33.0532V29.0366V30.0366H34.0054V29.0366ZM33.0532 29.0366V28.0366C32.7632 28.0366 32.5966 28.0076 32.5172 27.9832L32.2231 28.939L31.9291 29.8947C32.2729 30.0005 32.6597 30.0366 33.0532 30.0366V29.0366ZM32.2231 28.939L32.5619 27.9981C32.5569 27.9963 32.6012 28.0111 32.6591 28.0653C32.7229 28.1249 32.7753 28.2068 32.8026 28.2976L31.8447 28.585L30.8869 28.8723C31.0512 29.4199 31.4725 29.7316 31.8844 29.8799L32.2231 28.939ZM31.8447 28.585L32.7938 28.27L31.9149 25.6211L30.9658 25.936L30.0167 26.251L30.8956 28.8999L31.8447 28.585ZM30.9658 25.936V24.936H25.8511V25.936V26.936H30.9658V25.936ZM25.8511 25.936L24.902 25.6211L24.023 28.27L24.9722 28.585L25.9213 28.8999L26.8002 26.251L25.8511 25.936ZM24.9722 28.585L24.0136 28.3C24.0348 28.2287 24.0746 28.1575 24.1295 28.0988C24.1816 28.0432 24.2284 28.019 24.2435 28.0122C24.2567 28.0062 24.2453 28.0136 24.1958 28.0218C24.1471 28.0298 24.074 28.0366 23.9712 28.0366V29.0366V30.0366C24.3288 30.0366 24.7168 29.9928 25.0661 29.8352C25.4492 29.6623 25.7892 29.3461 25.9307 28.8699L24.9722 28.585ZM23.9712 29.0366V28.0366H23.1167V29.0366V30.0366H23.9712V29.0366ZM30.0381 23.0674L30.9906 22.7629L29.7577 18.9055L28.8052 19.21L27.8526 19.5144L29.0856 23.3718L30.0381 23.0674ZM28.8052 19.21L29.7415 18.8588C29.6875 18.7149 29.6345 18.5362 29.5853 18.3183L28.6099 18.5386L27.6344 18.7588C27.6992 19.0455 27.7763 19.3144 27.8688 19.5611L28.8052 19.21ZM28.6099 18.5386L29.5916 18.3486C29.5436 18.1005 29.4998 17.8652 29.46 17.6426L28.4756 17.8184L27.4912 17.9942C27.5328 18.2272 27.5784 18.4721 27.6281 18.7286L28.6099 18.5386ZM28.4756 17.8184V16.8184H28.3901V17.8184V18.8184H28.4756V17.8184ZM28.3901 17.8184L27.4063 17.6395L27.3574 17.908L28.3413 18.0869L29.3252 18.2658L29.374 17.9972L28.3901 17.8184ZM28.3413 18.0869L27.3554 17.9198C27.2788 18.3714 27.1992 18.6682 27.1301 18.8434L28.0605 19.21L28.991 19.5765C29.1335 19.2146 29.241 18.7627 29.3272 18.254L28.3413 18.0869ZM28.0605 19.21L27.1116 18.8946L25.8298 22.7521L26.7788 23.0674L27.7278 23.3827L29.0095 19.5253L28.0605 19.21ZM26.7788 23.0674V24.0674H30.0381V23.0674V22.0674H26.7788V23.0674ZM34.6772 28.1699L33.7313 27.8455L33.7286 27.8537L34.6772 28.1699ZM39.4624 14.2173L38.5241 13.8716L38.5202 13.8822L38.5165 13.8929L39.4624 14.2173ZM43.0513 14.2173L43.9972 13.8929L43.9935 13.8822L43.9896 13.8716L43.0513 14.2173ZM47.8364 28.1699L48.8066 27.9274L48.7962 27.8859L48.7823 27.8455L47.8364 28.1699ZM47.6289 28.9268L48.0228 29.8459L48.0328 29.8416L48.0427 29.8371L47.6289 28.9268ZM45.0288 28.939L44.6901 29.8799L44.7122 29.8878L44.7347 29.8947L45.0288 28.939ZM44.6504 28.585L45.6082 28.2976L45.6041 28.2838L45.5995 28.27L44.6504 28.585ZM43.7715 25.936L44.7206 25.6211L44.4933 24.936H43.7715V25.936ZM38.6567 25.936V24.936H37.9349L37.7076 25.6211L38.6567 25.936ZM37.7778 28.585L36.8287 28.27L36.8238 28.2849L36.8193 28.3L37.7778 28.585ZM42.8438 23.0674V24.0674H44.2132L43.7963 22.7629L42.8438 23.0674ZM41.6108 19.21L42.5634 18.9055L42.5558 18.882L42.5472 18.8588L41.6108 19.21ZM41.4155 18.5386L40.4337 18.7286L40.4367 18.7438L40.4401 18.7588L41.4155 18.5386ZM41.2812 17.8184L42.2657 17.6426L42.1185 16.8184H41.2812V17.8184ZM41.1958 17.8184V16.8184H40.3612L40.2119 17.6395L41.1958 17.8184ZM41.147 18.0869L40.163 17.908L40.161 17.9198L41.147 18.0869ZM40.8662 19.21L39.9358 18.8434L39.9258 18.8688L39.9172 18.8946L40.8662 19.21ZM39.5845 23.0674L38.6355 22.7521L38.1984 24.0674H39.5845V23.0674ZM35.9224 29.0366V28.0366C35.7283 28.0366 35.5755 28.0278 35.4587 28.0139C35.3384 27.9996 35.2788 27.9823 35.2613 27.9761C35.2382 27.9678 35.3154 27.9892 35.4066 28.0872C35.4558 28.14 35.5054 28.2114 35.5413 28.3013C35.5774 28.3917 35.5918 28.4811 35.5918 28.5605H34.5918H33.5918C33.5918 28.8998 33.7202 29.211 33.9433 29.4505C34.1454 29.6675 34.3889 29.7881 34.5876 29.8591C34.9747 29.9977 35.4468 30.0366 35.9224 30.0366V29.0366ZM34.5918 28.5605H35.5918C35.5918 28.5898 35.5896 28.6087 35.5888 28.6143C35.588 28.6205 35.5879 28.6193 35.5901 28.6094C35.5946 28.5886 35.6051 28.5488 35.6259 28.4861L34.6772 28.1699L33.7286 27.8537C33.6648 28.0451 33.5918 28.3023 33.5918 28.5605H34.5918ZM34.6772 28.1699L35.6232 28.4943L40.4083 14.5417L39.4624 14.2173L38.5165 13.8929L33.7313 27.8455L34.6772 28.1699ZM39.4624 14.2173L40.4007 14.563C40.3684 14.6508 40.3161 14.7191 40.2657 14.7637C40.2204 14.8038 40.1916 14.8116 40.2082 14.8053C40.225 14.799 40.2708 14.7849 40.3569 14.773C40.4417 14.7613 40.5532 14.7534 40.6953 14.7534V13.7534V12.7534C40.2855 12.7534 39.8697 12.7958 39.5039 12.9334C39.1222 13.0771 38.7121 13.3613 38.5241 13.8716L39.4624 14.2173ZM40.6953 13.7534V14.7534H41.8184V13.7534V12.7534H40.6953V13.7534ZM41.8184 13.7534V14.7534C41.9605 14.7534 42.0719 14.7613 42.1568 14.773C42.2429 14.7849 42.2887 14.799 42.3055 14.8053C42.3221 14.8116 42.2933 14.8038 42.2479 14.7637C42.1975 14.7191 42.1453 14.6508 42.1129 14.563L43.0513 14.2173L43.9896 13.8716C43.8016 13.3613 43.3915 13.0771 43.0097 12.9334C42.644 12.7958 42.2281 12.7534 41.8184 12.7534V13.7534ZM43.0513 14.2173L42.1054 14.5417L46.8905 28.4943L47.8364 28.1699L48.7823 27.8455L43.9972 13.8929L43.0513 14.2173ZM47.8364 28.1699L46.8663 28.4125C46.8812 28.4722 46.8897 28.5153 46.8942 28.544C46.8989 28.5745 46.8975 28.5777 46.8975 28.5605H47.8975H48.8975C48.8975 28.3432 48.8551 28.1215 48.8066 27.9274L47.8364 28.1699ZM47.8975 28.5605H46.8975C46.8975 28.4462 46.9332 28.3065 47.0239 28.1828C47.1064 28.0703 47.194 28.026 47.2151 28.0164L47.6289 28.9268L48.0427 29.8371C48.2428 29.7462 48.4647 29.6001 48.6367 29.3655C48.8169 29.1198 48.8975 28.8377 48.8975 28.5605H47.8975ZM47.6289 28.9268L47.235 28.0076C47.2623 27.9959 47.2483 28.0066 47.1631 28.0181C47.0835 28.0288 46.9684 28.0366 46.811 28.0366V29.0366V30.0366C47.2113 30.0366 47.6558 30.0032 48.0228 29.8459L47.6289 28.9268ZM46.811 29.0366V28.0366H45.8589V29.0366V30.0366H46.811V29.0366ZM45.8589 29.0366V28.0366C45.5688 28.0366 45.4022 28.0076 45.3229 27.9832L45.0288 28.939L44.7347 29.8947C45.0786 30.0005 45.4654 30.0366 45.8589 30.0366V29.0366ZM45.0288 28.939L45.3675 27.9981C45.3626 27.9963 45.4069 28.0111 45.4648 28.0653C45.5286 28.1249 45.581 28.2068 45.6082 28.2976L44.6504 28.585L43.6926 28.8723C43.8568 29.4199 44.2782 29.7316 44.6901 29.8799L45.0288 28.939ZM44.6504 28.585L45.5995 28.27L44.7206 25.6211L43.7715 25.936L42.8224 26.251L43.7013 28.8999L44.6504 28.585ZM43.7715 25.936V24.936H38.6567V25.936V26.936H43.7715V25.936ZM38.6567 25.936L37.7076 25.6211L36.8287 28.27L37.7778 28.585L38.727 28.8999L39.6059 26.251L38.6567 25.936ZM37.7778 28.585L36.8193 28.3C36.8405 28.2287 36.8802 28.1575 36.9352 28.0988C36.9873 28.0432 37.034 28.019 37.0492 28.0122C37.0624 28.0062 37.051 28.0136 37.0015 28.0218C36.9528 28.0298 36.8796 28.0366 36.7769 28.0366V29.0366V30.0366C37.1344 30.0366 37.5224 29.9928 37.8717 29.8352C38.2549 29.6623 38.5948 29.3461 38.7364 28.8699L37.7778 28.585ZM36.7769 29.0366V28.0366H35.9224V29.0366V30.0366H36.7769V29.0366ZM42.8438 23.0674L43.7963 22.7629L42.5634 18.9055L41.6108 19.21L40.6583 19.5144L41.8912 23.3718L42.8438 23.0674ZM41.6108 19.21L42.5472 18.8588C42.4932 18.7149 42.4402 18.5362 42.391 18.3183L41.4155 18.5386L40.4401 18.7588C40.5048 19.0455 40.582 19.3144 40.6745 19.5611L41.6108 19.21ZM41.4155 18.5386L42.3973 18.3486C42.3493 18.1005 42.3054 17.8652 42.2657 17.6426L41.2812 17.8184L40.2968 17.9942C40.3384 18.2272 40.3841 18.4721 40.4337 18.7286L41.4155 18.5386ZM41.2812 17.8184V16.8184H41.1958V17.8184V18.8184H41.2812V17.8184ZM41.1958 17.8184L40.2119 17.6395L40.1631 17.908L41.147 18.0869L42.1308 18.2658L42.1797 17.9972L41.1958 17.8184ZM41.147 18.0869L40.161 17.9198C40.0845 18.3714 40.0048 18.6682 39.9358 18.8434L40.8662 19.21L41.7966 19.5765C41.9392 19.2146 42.0467 18.7627 42.1329 18.254L41.147 18.0869ZM40.8662 19.21L39.9172 18.8946L38.6355 22.7521L39.5845 23.0674L40.5335 23.3827L41.8152 19.5253L40.8662 19.21ZM39.5845 23.0674V24.0674H42.8438V23.0674V22.0674H39.5845V23.0674ZM48.4595 28.646L47.5839 29.1291L48.4595 28.646ZM48.1177 27.8281L47.1552 28.0996L47.1594 28.1145L47.1641 28.1293L48.1177 27.8281ZM48.02 26.8516L47.2058 26.2711L47.0958 26.4253L47.0499 26.609L48.02 26.8516ZM55.2954 16.6465L56.1097 17.227L57.2364 15.6465H55.2954V16.6465ZM48.7646 16.3901L47.8964 16.8863L47.9051 16.9015L47.9144 16.9165L48.7646 16.3901ZM48.7646 14.0708L47.9144 13.5444L47.9051 13.5594L47.8964 13.5747L48.7646 14.0708ZM59.5312 14.1807L58.6368 14.6279L58.6427 14.6396L58.6489 14.6513L59.5312 14.1807ZM59.8486 15.0352L58.8785 15.2777L58.8821 15.2922L58.8862 15.3066L59.8486 15.0352ZM59.9585 15.9751L60.773 16.5552L60.782 16.5426L60.7905 16.5298L59.9585 15.9751ZM52.7075 26.1558L51.893 25.5756L50.7676 27.1558H52.7075V26.1558ZM59.8242 26.4121L58.956 26.9082L58.9647 26.9235L58.974 26.9385L59.8242 26.4121ZM59.8242 28.7437L58.974 28.2173L58.9647 28.2322L58.956 28.2475L59.8242 28.7437ZM48.8379 29V28C49.1193 28 49.2896 28.1389 49.3349 28.1812C49.379 28.2225 49.3745 28.2344 49.3351 28.1629L48.4595 28.646L47.5839 29.1291C47.6747 29.2936 47.7983 29.4825 47.9686 29.6418C48.14 29.8021 48.4345 30 48.8379 30V29ZM48.4595 28.646L49.3351 28.1629C49.2425 27.9951 49.1529 27.7854 49.0713 27.527L48.1177 27.8281L47.1641 28.1293C47.2778 28.4893 47.4161 28.8249 47.5839 29.1291L48.4595 28.646ZM48.1177 27.8281L49.0801 27.5567C49.0009 27.2759 48.9834 27.1211 48.9834 27.0591H47.9834H46.9834C46.9834 27.3877 47.0554 27.7456 47.1552 28.0996L48.1177 27.8281ZM47.9834 27.0591H48.9834C48.9834 27.0786 48.9827 27.0946 48.9819 27.1062C48.9812 27.118 48.9803 27.1273 48.9796 27.1337C48.9782 27.1459 48.9771 27.1521 48.9773 27.1505C48.9775 27.1493 48.9785 27.144 48.9807 27.1339C48.9829 27.1239 48.986 27.1108 48.9902 27.0941L48.02 26.8516L47.0499 26.609C47.0262 26.7036 46.9834 26.8814 46.9834 27.0591H47.9834ZM48.02 26.8516L48.8343 27.4321L56.1097 17.227L55.2954 16.6465L54.4812 16.066L47.2058 26.2711L48.02 26.8516ZM55.2954 16.6465V15.6465H49.2651V16.6465V17.6465H55.2954V16.6465ZM49.2651 16.6465V15.6465C49.276 15.6465 49.3401 15.6488 49.425 15.6924C49.5155 15.7387 49.5791 15.806 49.6149 15.8638L48.7646 16.3901L47.9144 16.9165C48.2296 17.4257 48.7459 17.6465 49.2651 17.6465V16.6465ZM48.7646 16.3901L49.6329 15.894C49.6599 15.9413 49.6518 15.95 49.6396 15.8807C49.6282 15.816 49.6182 15.7123 49.6182 15.5601H48.6182H47.6182C47.6182 15.9809 47.6637 16.479 47.8964 16.8863L48.7646 16.3901ZM48.6182 15.5601H49.6182V14.9009H48.6182H47.6182V15.5601H48.6182ZM48.6182 14.9009H49.6182C49.6182 14.7486 49.6282 14.6449 49.6396 14.5803C49.6518 14.5109 49.6599 14.5196 49.6329 14.5669L48.7646 14.0708L47.8964 13.5747C47.6637 13.982 47.6182 14.4801 47.6182 14.9009H48.6182ZM48.7646 14.0708L49.6149 14.5972C49.5791 14.655 49.5155 14.7222 49.425 14.7686C49.3401 14.8121 49.276 14.8145 49.2651 14.8145V13.8145V12.8145C48.7459 12.8145 48.2296 13.0352 47.9144 13.5444L48.7646 14.0708ZM49.2651 13.8145V14.8145H59.1895V13.8145V12.8145H49.2651V13.8145ZM59.1895 13.8145V14.8145C58.8399 14.8145 58.6484 14.6153 58.6232 14.5883C58.5866 14.5491 58.5952 14.5446 58.6368 14.6279L59.5312 14.1807L60.4257 13.7335C60.3452 13.5726 60.2359 13.385 60.0853 13.2237C59.9462 13.0747 59.6448 12.8145 59.1895 12.8145V13.8145ZM59.5312 14.1807L58.6489 14.6513C58.7335 14.8099 58.8129 15.0153 58.8785 15.2777L59.8486 15.0352L60.8188 14.7926C60.7216 14.4039 60.5894 14.0397 60.4136 13.7101L59.5312 14.1807ZM59.8486 15.0352L58.8862 15.3066C58.9654 15.5874 58.9829 15.7422 58.9829 15.8042H59.9829H60.9829C60.9829 15.4756 60.9109 15.1177 60.8111 14.7637L59.8486 15.0352ZM59.9829 15.8042H58.9829C58.9829 15.8245 58.9816 15.8092 58.9869 15.7726C58.9896 15.7536 58.9961 15.7143 59.0114 15.6633C59.0252 15.6172 59.057 15.5245 59.1264 15.4204L59.9585 15.9751L60.7905 16.5298C60.9282 16.3234 60.9581 16.1163 60.9668 16.0555C60.9801 15.9619 60.9829 15.8734 60.9829 15.8042H59.9829ZM59.9585 15.9751L59.144 15.395L51.893 25.5756L52.7075 26.1558L53.522 26.7359L60.773 16.5552L59.9585 15.9751ZM52.7075 26.1558V27.1558H59.3359V26.1558V25.1558H52.7075V26.1558ZM59.3359 26.1558V27.1558C59.3261 27.1558 59.2564 27.1537 59.1641 27.1052C59.0646 27.053 58.9948 26.9761 58.956 26.9082L59.8242 26.4121L60.6925 25.916C60.3855 25.3789 59.855 25.1558 59.3359 25.1558V26.1558ZM59.8242 26.4121L58.974 26.9385C58.9438 26.8897 58.95 26.8757 58.9615 26.9352C58.9725 26.9914 58.9829 27.0862 58.9829 27.23H59.9829H60.9829C60.9829 26.8059 60.9311 26.3003 60.6745 25.8858L59.8242 26.4121ZM59.9829 27.23H58.9829V27.9136H59.9829H60.9829V27.23H59.9829ZM59.9829 27.9136H58.9829C58.9829 28.0625 58.9723 28.1612 58.961 28.2202C58.949 28.2831 58.9424 28.2683 58.974 28.2173L59.8242 28.7437L60.6745 29.27C60.9325 28.8532 60.9829 28.3409 60.9829 27.9136H59.9829ZM59.8242 28.7437L58.956 28.2475C58.9948 28.1796 59.0646 28.1028 59.1641 28.0505C59.2564 28.002 59.3261 28 59.3359 28V29V30C59.855 30 60.3855 29.7769 60.6925 29.2398L59.8242 28.7437ZM59.3359 29V28H48.8379V29V30H59.3359V29Z" fill="black" mask="url(#path-3-outside-2_640_359)"/>
</g>
<defs>
<filter id="filter0_d_640_359" x="0.501953" y="12.7534" width="64.4805" height="25.2832" filterUnits="userSpaceOnUse" color-interpolation-filters="sRGB">
<feFlood flood-opacity="0" result="BackgroundImageFix"/>
<feColorMatrix in="SourceAlpha" type="matrix" values="0 0 0 0 0 0 0 0 0 0 0 0 0 0 0 0 0 0 127 0" result="hardAlpha"/>
<feOffset dy="4"/>
<feGaussianBlur stdDeviation="2"/>
<feComposite in2="hardAlpha" operator="out"/>
<feColorMatrix type="matrix" values="0 0 0 0 0 0 0 0 0 0 0 0 0 0 0 0 0 0 0.25 0"/>
<feBlend mode="normal" in2="BackgroundImageFix" result="effect1_dropShadow_640_359"/>
<feBlend mode="normal" in="SourceGraphic" in2="effect1_dropShadow_640_359" result="shape"/>
</filter>
</defs>
</svg>
