<svg width="200" height="203" viewBox="0 0 200 203" fill="none" xmlns="http://www.w3.org/2000/svg">
<g clip-path="url(#clip0_649_438)">
<mask id="mask0_649_438" style="mask-type:luminance" maskUnits="userSpaceOnUse" x="0" y="0" width="200" height="203">
<path d="M200 0H0V202.843H200V0Z" fill="white"/>
</mask>
<g mask="url(#mask0_649_438)">
<path d="M18.5368 62.4296L14.3219 60.2313L16.1897 56.6362L20.4128 58.8428L21.793 56.2065L11.3136 50.7354L9.94175 53.3717L14.0409 55.5123L12.1649 59.0991L8.06571 56.9585L6.68555 59.5949L17.1566 65.066L18.5368 62.4296Z" fill="white"/>
<path d="M17.4961 51.8098C20.4135 53.8677 23.7606 53.6528 25.9176 50.5784C28.0581 47.5371 27.149 44.2892 24.2317 42.2396C21.3226 40.1983 17.9672 40.4379 15.8267 43.4793C13.6697 46.5454 14.5953 49.7685 17.5044 51.8098H17.4961ZM17.8102 44.876C19.0498 43.1156 20.8019 43.5454 22.4796 44.7272C24.1655 45.9173 25.1655 47.4297 23.9341 49.1817C22.6862 50.9503 20.9424 50.5123 19.2482 49.3222C17.5705 48.1404 16.5622 46.6445 17.8102 44.876Z" fill="white"/>
<path d="M31.6867 42.7354L26.3396 37.6858L26.3644 37.6611L33.2156 41.1156L34.6454 39.6032L30.8107 32.9503L30.8355 32.9255L36.1826 37.9751L38.1082 35.942L29.5214 27.8181L27.0255 30.4627L30.8355 37.4049L30.8107 37.4296L23.6702 34.0164L21.166 36.6611L29.7528 44.7768L31.6867 42.7354Z" fill="white"/>
<path d="M46.4227 29.2231L44.8938 27.3305L40.1665 31.1652L38.6376 29.2726L42.6459 26.0247L41.1169 24.1404L37.1087 27.3883L35.7864 25.752L40.4392 21.9916L38.9103 20.0991L31.9434 25.7354L39.3814 34.9255L46.4227 29.2231Z" fill="white"/>
<path d="M79.3629 14.2811L79.5529 6.70254L79.586 6.69427L82.8505 13.5373L85.7678 12.9175L86.2389 0.735596L83.3298 1.35543L83.5199 9.51245H83.4868L80.0157 2.05791L77.2719 2.64469L77.148 10.8679L77.1149 10.8761L73.9579 3.34717L71.0488 3.967L76.4538 14.9009L79.3629 14.2811Z" fill="white"/>
<path d="M94.5537 12.3389C98.2644 12.1158 100.24 9.37196 100.017 5.80997C99.8016 2.26452 97.5124 -0.21482 93.8016 0.00832044C90.0578 0.239725 88.1157 2.967 88.3306 6.52072C88.5454 10.0827 90.8016 12.5621 94.5454 12.3389H94.5537ZM93.9504 2.43807C96.0991 2.30584 96.8595 3.95047 96.9834 6.00006C97.1074 8.06617 96.5537 9.78518 94.4049 9.91741C92.2396 10.0497 91.4958 8.40501 91.3719 6.3389C91.2479 4.28931 91.7851 2.5703 93.9504 2.43807Z" fill="white"/>
<path d="M104.76 7.8926L106.603 8.01656C109.123 8.19012 107.809 11.7273 108.346 12.2645L111.429 12.4711V12.3059C110.776 12.0579 112.165 7.57028 109.247 6.85127V6.81822C110.743 6.58681 111.727 5.67772 111.842 4.03309C111.991 1.8926 110.487 0.56202 107.867 0.380202L102.322 0.00830078L101.512 11.8017L104.479 12.0083L104.76 7.90086V7.8926ZM105.123 2.62813L107.132 2.76863C108.322 2.85127 108.917 3.32235 108.851 4.31408C108.784 5.30582 108.123 5.68599 106.941 5.61161L104.933 5.47111L105.132 2.6364L105.123 2.62813Z" fill="white"/>
<path d="M116.032 10.0743L117.503 8.90903L119.636 14.0247L123.049 14.6776L119.611 7.24787L124.958 3.0082L121.826 2.4049L116.718 6.55366L117.669 1.60324L114.743 1.04126L112.512 12.6445L115.429 13.2148L116.032 10.0743Z" fill="white"/>
<path d="M154.098 26.6859L157.346 29.0992L156.486 31.5289L159.098 33.4711L162.511 21.281L160.106 19.4958L149.453 26.2976L152.015 28.1983L154.089 26.6777L154.098 26.6859ZM159.668 22.5702L159.693 22.5868L158.164 26.8843L155.99 25.2645L159.668 22.562V22.5702Z" fill="white"/>
<path d="M163.752 37.9837C165.521 39.6779 167.356 40.0829 169.091 38.2647C170.314 36.9837 170.124 35.6614 169.372 34.6448L169.397 34.62C170.331 35.0581 171.455 35.1242 172.463 34.0746C173.86 32.62 173.587 31.0333 171.81 29.3308L167.67 25.3638L159.496 33.901L163.761 37.9837H163.752ZM168.132 29.1738L169.57 30.5457C170.166 31.1159 170.504 31.7192 169.835 32.4217C169.157 33.1242 168.546 32.8101 167.951 32.2399L166.521 30.868L168.141 29.1738H168.132ZM166.744 33.6118C167.637 34.4713 167.901 35.1076 167.132 35.9093C166.364 36.711 165.703 36.4878 164.81 35.6366L163.314 34.2068L165.248 32.1903L166.744 33.62V33.6118Z" fill="white"/>
<path d="M170.579 45.9257C172.909 48.8183 176.281 48.8431 179.058 46.6034C181.827 44.372 182.521 41.0745 180.19 38.1819C177.835 35.2563 174.488 35.2646 171.719 37.496C168.943 39.7357 168.224 43.0084 170.579 45.9257ZM173.628 39.8596C175.224 38.5786 176.943 38.0167 178.298 39.7026C179.645 41.372 178.744 42.9505 177.149 44.2315C175.538 45.529 173.81 46.0662 172.463 44.3968C171.108 42.7109 172.017 41.1489 173.62 39.8596H173.628Z" fill="white"/>
<path d="M177.346 55.562C179.206 58.6115 181.272 58.9587 183.792 57.4215L190.247 53.4876L188.701 50.9504L182.247 54.8843C180.933 55.6859 180.106 55.4132 179.429 54.2975C178.751 53.1818 178.883 52.3223 180.197 51.5206L186.652 47.5868L185.098 45.0496L178.644 48.9834C176.131 50.5124 175.487 52.5124 177.346 55.562Z" fill="white"/>
<path d="M190.496 59.5621L181.967 63.4877L183.206 66.1902L191.735 62.2646L193.173 65.372L195.38 64.3555L191.264 55.4216L189.058 56.4381L190.496 59.5621Z" fill="white"/>
<path d="M57.2067 20.9007C59.9453 20.9007 62.1654 18.6806 62.1654 15.942C62.1654 13.2034 59.9453 10.9834 57.2067 10.9834C54.4681 10.9834 52.248 13.2034 52.248 15.942C52.248 18.6806 54.4681 20.9007 57.2067 20.9007Z" fill="white"/>
<path d="M195.727 73.8346C195.463 72.9586 194.545 72.471 193.669 72.7355C192.793 72.9999 192.306 73.9255 192.57 74.7933C195.314 83.8512 196.702 93.2892 196.702 102.843C196.702 156.157 153.322 199.537 100.008 199.537C46.6942 199.537 3.30579 156.157 3.30579 102.843C3.30579 91.6941 5.19008 80.7602 8.90083 70.3553C9.20661 69.4958 8.76033 68.5536 7.90083 68.2396C7.04132 67.9338 6.09917 68.3801 5.78512 69.2396C1.94215 80.0082 0 91.3057 0 102.843C0 157.983 44.8595 202.843 100 202.843C155.141 202.843 200 157.983 200 102.843C200 92.9586 198.562 83.1983 195.727 73.8346Z" fill="white"/>
<path d="M139.347 18.9422C142.086 18.9422 144.306 16.7222 144.306 13.9836C144.306 11.245 142.086 9.0249 139.347 9.0249C136.609 9.0249 134.389 11.245 134.389 13.9836C134.389 16.7222 136.609 18.9422 139.347 18.9422Z" fill="white"/>
</g>
</g>
<defs>
<clipPath id="clip0_649_438">
<rect width="200" height="203" fill="white"/>
</clipPath>
</defs>
</svg>
