<svg width="90" height="45" viewBox="0 0 90 45" fill="none" xmlns="http://www.w3.org/2000/svg">
<mask id="mask0_540_20" style="mask-type:alpha" maskUnits="userSpaceOnUse" x="0" y="0" width="90" height="45">
<mask id="mask1_540_20" style="mask-type:luminance" maskUnits="userSpaceOnUse" x="0" y="0" width="90" height="45">
<path d="M89.827 0H0V45H89.827V0Z" fill="white"/>
</mask>
<g mask="url(#mask1_540_20)">
<path d="M83.6613 21.9343C83.6613 21.9343 84.957 22.9587 84.957 25.6912C84.957 28.4238 83.9677 30.4686 82.4862 30.4686C81.5601 30.4686 80.7926 28.3586 80.7926 25.5813C80.7926 22.804 81.1768 17.5626 76.0843 17.5626C72.7301 17.5626 69.9042 20.874 68.8536 24.271C67.8438 26.02 66.6852 27.2379 65.8389 26.3916C64.7221 25.2749 66.4041 19.6862 68.4479 14.5324L87.1983 14.9575L89.8268 10.4516L69.8828 11.1111C70.2981 10.1734 70.7067 9.2969 71.0871 8.52256C71.0871 8.52256 67.801 8.185 66.4868 9.31149C66.2066 9.55176 65.7757 10.2638 65.2727 11.2639L40.2585 12.0917L39.2216 13.8709L63.8379 14.4283C62.2279 18.2767 60.5703 23.1668 60.5703 25.0823C60.5703 27.8985 62.7416 29.9637 65.7455 29.9637C66.9839 29.9637 67.9946 29.3586 68.7787 28.5921C69.4392 29.9598 70.947 30.8674 72.8595 30.8674C74.4325 30.8674 75.9598 29.8936 77.094 28.5269C77.8168 30.9832 79.4939 33.3859 82.5737 33.3859C87.2032 33.3859 89.7383 29.9666 89.7383 26.0152C89.7383 20.8808 83.6613 20.3973 83.6613 21.9343ZM72.7671 27.6271C71.5258 26.3858 74.9451 18.871 76.2856 20.2115C76.7964 20.7222 76.8557 21.516 76.807 22.5598C76.4627 26.0755 73.5511 28.4102 72.7671 27.6271Z" fill="#111827"/>
<path d="M6.29003 17.3205C6.29003 13.0023 25.0599 2.91063 28.3032 2.91063C29.5999 2.91063 24.9996 11.8291 20.7874 16.8983C20.7874 17.837 25.3021 18.2125 26.6319 17.086C29.9034 14.3155 33.4794 7.78428 33.4794 3.79295C33.4794 2.85421 32.8091 0.00103766 28.5843 0.00103766C17.8827 6.48716e-05 0 11.8427 0 16.9119C0 22.8041 18.2028 24.1728 18.2028 27.74C18.2028 28.7731 16.7942 29.524 12.8515 29.524C8.90876 29.524 7.40678 28.0221 7.40678 28.0221C6.46805 28.9608 7.40679 32.7527 15.1044 32.7527C21.3001 32.7527 25.055 30.0873 25.055 27.8343C25.055 22.3897 6.29003 21.0754 6.29003 17.3205Z" fill="#111827"/>
<path d="M31.6893 15.3642C32.0414 16.4089 35.4724 16.5461 35.4724 16.5461L38.4462 11.5586C38.4462 11.5586 34.0512 11.8047 33.2827 12.0742C32.5142 12.3437 31.3371 14.3204 31.6893 15.3642Z" fill="#111827"/>
<path d="M59.6034 25.3673C60.3573 20.9061 55.0624 16.2309 55.0624 16.2309L51.7248 16.0179C51.7248 16.0179 51.7598 16.0577 51.8221 16.1326C51.7627 20.2641 48.2928 26.7992 43.5573 26.7992C42.2703 26.7992 41.5144 26.1076 41.1535 25.1056C41.4707 25.1766 41.959 25.2311 42.7119 25.2311C44.9649 25.2311 47.5 22.6697 47.5 20.0413C47.5 17.9761 46.3735 16.192 43.0874 16.192C38.812 16.192 37.0571 19.8642 36.6875 22.9207C35.3139 25.6504 32.7409 27.8907 31.7243 26.8741C30.5035 25.6533 34.3839 18.3243 34.3839 18.3243C34.3839 18.3243 31.2555 18.1434 30.129 18.1434C28.8147 18.1434 26.7495 23.5881 26.7495 26.0288C26.7495 28.2817 27.6882 29.7837 31.0677 29.7837C34.6437 29.7837 36.9404 26.628 37.1515 26.3264C38.1749 28.1903 40.5144 29.2399 42.994 29.2399C45.3025 29.2399 47.141 28.6368 48.6129 27.7C49.2208 28.3664 50.4787 29.2837 52.9281 29.5697C56.0654 29.9364 59.0752 28.4929 59.6034 25.3673ZM44.0271 17.693C44.9046 19.7991 43.7314 23.2982 40.8919 23.517C40.8539 20.908 42.353 17.693 44.0271 17.693ZM55.3873 24.2048C55.1237 25.7661 53.5565 26.948 51.9476 26.7593C51.3007 26.6835 50.8201 26.4082 50.4952 26.1426C52.4836 24.054 53.504 21.34 54.0935 19.4148C54.9437 20.9362 55.6393 22.7184 55.3883 24.2048H55.3873Z" fill="#111827"/>
<path d="M23.7358 41.3268C23.2378 41.2305 22.7397 41.138 22.2426 41.0495C21.979 40.9941 21.7679 41.1954 21.73 41.499C21.6531 42.1643 21.4566 42.5437 20.7299 42.5739C19.7533 42.6138 19.6861 41.9688 19.6832 40.9036C19.6822 40.2392 19.6803 39.5758 19.6793 38.9113C19.6774 37.8471 19.7416 37.1876 20.7144 37.0465C21.4245 36.9453 21.6628 37.2868 21.7309 37.9104C21.7718 38.2061 21.9829 38.3851 22.2592 38.2975C22.7465 38.1234 23.2339 37.9483 23.7203 37.7722C23.9051 37.708 24.0228 37.5319 24.0082 37.3247C23.9508 36.1866 23.5033 34.0961 20.7066 34.6214C17.5985 35.2362 17.4176 37.6166 17.4166 38.4785V41.7849C17.4166 42.6546 17.6005 44.9698 20.7358 44.999C23.553 45.0195 23.98 42.8793 24.0277 41.7421C24.0393 41.5184 23.9207 41.3608 23.7358 41.3268Z" fill="#111827"/>
<path d="M29.02 33.3062C26.0481 33.7089 25.7961 35.8092 25.8049 37.7236C25.8156 39.8842 25.8263 42.0437 25.837 44.2043C25.8389 44.5399 25.9849 44.7228 26.2358 44.7228C26.73 44.7208 27.2232 44.7189 27.7174 44.7179C27.982 44.7179 28.1143 44.5593 28.1114 44.2451C28.1094 43.7889 28.1065 43.0768 28.1046 42.6206C28.1026 42.3064 28.2476 42.1449 28.4985 42.1371C28.8779 42.1264 29.2563 42.1157 29.6357 42.105C29.9003 42.0972 30.0336 42.2548 30.0355 42.5758C30.0375 43.0418 30.0404 43.7636 30.0433 44.2286C30.0453 44.5496 30.1912 44.7092 30.4422 44.7092C30.9363 44.7082 31.4295 44.7062 31.9237 44.7053C32.1883 44.7053 32.3196 44.5078 32.3177 44.1469C32.306 41.8297 32.2943 39.5125 32.2827 37.1944C32.2729 35.1331 31.9947 32.9287 29.02 33.3062ZM29.6221 39.854C29.2427 39.8803 28.8643 39.9075 28.4849 39.9357C28.233 39.9542 28.088 39.7499 28.0861 39.3802C28.0832 38.6721 28.0802 37.9629 28.0773 37.2547C28.0734 36.3199 28.1639 35.8393 29.0365 35.7352C29.9091 35.6331 30.0034 36.1039 30.0073 37.0592C30.0102 37.7761 30.0132 38.4931 30.0161 39.21C30.018 39.6079 29.8857 39.8151 29.6221 39.854Z" fill="#111827"/>
<path d="M43.3101 32.4881C42.3928 32.5143 41.9862 32.5494 40.8723 32.5922C40.5815 32.6038 40.421 32.7828 40.3577 33.0785C39.9813 34.7673 39.5192 36.4502 39.2108 38.1263C39.1846 38.2995 39.0795 38.3024 39.0523 38.1312C38.7332 36.4755 38.2624 34.8276 37.8733 33.1885C37.8071 32.9005 37.6446 32.7381 37.3548 32.7546C36.2419 32.8139 35.8353 32.882 34.9209 32.9579C34.6563 32.9803 34.524 33.1583 34.5259 33.493C34.5424 37.0611 34.559 40.6293 34.5755 44.1975C34.5765 44.5156 34.7107 44.6984 34.9744 44.6984C35.4685 44.6975 35.9617 44.6965 36.4559 44.6955C36.7205 44.6955 36.8518 44.5088 36.8509 44.1858C36.8421 41.9562 36.8333 38.9707 36.8236 36.7411C36.8236 36.6224 36.9423 36.6 36.9695 36.7177C37.4073 38.959 37.8441 41.9746 38.2799 44.248C38.3344 44.5389 38.4803 44.6926 38.7186 44.6916C39.0095 44.6916 39.3003 44.6916 39.5912 44.6907C39.8295 44.6907 39.9745 44.535 40.026 44.2422C40.4463 41.9474 40.8685 38.8841 41.2916 36.5689C41.3169 36.4473 41.4375 36.4609 41.4375 36.5825C41.4434 38.8588 41.4492 41.8929 41.455 44.1692C41.455 44.499 41.6019 44.6887 41.8529 44.6887C42.3471 44.6887 42.8403 44.6887 43.3345 44.6877C43.5991 44.6877 43.7314 44.4961 43.7304 44.1644C43.7246 40.4435 43.7177 36.7226 43.7119 33.0017C43.7119 32.6525 43.5777 32.4822 43.3121 32.49L43.3101 32.4881Z" fill="#111827"/>
<path d="M49.7685 32.4346C48.7937 32.4219 47.819 32.419 46.8443 32.4258C46.5787 32.4453 46.4464 32.6213 46.4454 32.9715C46.4474 36.7012 46.4493 40.4299 46.4513 44.1595C46.4513 44.4922 46.5972 44.6848 46.8482 44.6848C47.3423 44.6848 47.8355 44.6848 48.3297 44.6848C48.5943 44.6848 48.7266 44.5097 48.7266 44.1595C48.7266 43.2257 48.7266 42.2918 48.7276 41.3569C48.7276 41.0067 48.8735 40.8316 49.1255 40.8326C49.3375 40.8326 49.5496 40.8336 49.7617 40.8346C52.1187 40.8433 53.0759 39.5369 53.0818 36.6866C53.0876 33.8402 52.1343 32.4706 49.7685 32.4346ZM49.8434 38.4911C49.605 38.4882 49.3657 38.4863 49.1274 38.4843C48.8754 38.4824 48.7295 38.1808 48.7295 37.6613C48.7295 36.9687 48.7295 36.2761 48.7295 35.5835C48.7295 35.0368 48.8764 34.7644 49.1284 34.7673C49.3677 34.7693 49.606 34.7731 49.8453 34.7761C50.4825 34.7858 50.8006 34.9589 50.7996 36.6496C50.7986 38.3413 50.4796 38.4989 49.8434 38.4911Z" fill="#111827"/>
<path d="M60.7629 32.9618C58.9069 32.8071 57.0489 32.6855 55.1899 32.597C54.9379 32.5853 54.791 32.7517 54.79 33.098C54.7803 36.7887 54.7696 40.4785 54.7599 44.1692C54.7599 44.498 54.9039 44.6887 55.1548 44.6887C57.007 44.6907 58.8582 44.6936 60.7094 44.6975C60.974 44.6975 61.1073 44.5311 61.1083 44.1965C61.1112 43.572 61.1141 43.4046 61.117 42.6313C61.118 42.2169 60.9877 42.0067 60.7221 41.999C59.6549 41.9698 58.5868 41.9445 57.5187 41.9221C57.2668 41.9172 57.1218 41.6809 57.1228 41.2781C57.1228 41.0524 57.1238 40.8258 57.1247 40.6001C57.1257 40.176 57.2726 39.9678 57.5236 39.9756C58.2074 39.996 58.8923 40.0193 59.5761 40.0446C59.8417 40.0544 59.974 39.8297 59.976 39.4337C59.9789 38.6545 59.9818 38.7606 59.9837 38.0388C59.9857 37.6516 59.8534 37.4502 59.5888 37.4356C58.904 37.3977 58.2201 37.3636 57.5352 37.3325C57.2833 37.3208 57.1383 37.0991 57.1393 36.7245C57.1393 36.5144 57.1403 36.0523 57.1413 35.8422C57.1413 35.4492 57.2891 35.2595 57.5411 35.2731C58.6111 35.3315 59.6802 35.3996 60.7493 35.4774C61.0139 35.4969 61.1472 35.2955 61.1491 34.9307C61.1521 34.2138 61.155 34.1194 61.1579 33.4949C61.1598 33.1603 61.0275 32.9822 60.7629 32.9599V32.9618Z" fill="#111827"/>
<path d="M69.0092 40.8316C68.9829 40.7528 68.9975 40.676 69.0501 40.6322C69.7534 40.0806 70.0618 39.1118 70.0686 37.6915C70.0802 35.1982 69.1376 33.885 66.7864 33.5815C65.8214 33.4628 64.8564 33.3538 63.8894 33.2537C63.6511 33.2284 63.4779 33.4249 63.476 33.7206C63.4585 37.2119 63.441 40.7032 63.4235 44.1945C63.4225 44.4903 63.5927 44.7043 63.8311 44.7043C64.3252 44.7053 64.8184 44.7072 65.3126 44.7082C65.551 44.7082 65.7231 44.5 65.7251 44.2111C65.7299 43.3648 65.7338 42.5184 65.7387 41.6721C65.7406 41.3832 65.9128 41.1799 66.1512 41.1896C66.3272 41.1964 66.5033 41.2032 66.6794 41.211C66.7183 41.213 66.7591 41.246 66.7854 41.2947C67.2378 42.3784 67.6911 43.4465 68.1434 44.4971C68.196 44.6381 68.3137 44.7169 68.446 44.7169C68.9489 44.7189 69.4508 44.7208 69.9528 44.7218C70.3633 44.7218 70.5764 44.2996 70.3935 43.9017C69.9314 42.8959 69.4693 41.8715 69.0073 40.8297L69.0092 40.8316ZM66.8399 38.816C66.6152 38.7937 66.3905 38.7723 66.1657 38.7509C65.9274 38.7285 65.7572 38.4182 65.7581 38.0115C65.7601 37.4541 65.762 36.8967 65.764 36.3393C65.7659 35.9327 65.9381 35.6593 66.1765 35.6905C66.4012 35.7187 66.6259 35.7479 66.8506 35.778C67.4848 35.8627 67.802 36.0407 67.7961 37.4104C67.7913 38.78 67.4732 38.8802 66.8389 38.817L66.8399 38.816Z" fill="#111827"/>
<path d="M74.303 37.5923C74.1591 36.9716 74.5686 36.709 75.0822 36.7819C75.7 36.8695 76.1338 37.2946 76.2243 37.8744C76.2632 38.1575 76.4004 38.3345 76.6572 38.2742C77.1446 38.1497 77.8994 37.8734 77.8994 37.8734C77.8994 37.8734 78.2808 37.7265 78.2671 37.4862C78.1874 36.5339 77.4967 34.9191 75.09 34.6029C72.1221 34.2138 71.8944 36.7022 71.9071 37.1458C71.8925 40.5943 75.9616 40.5622 76.2292 41.9027C76.3138 42.3258 75.7992 42.7519 75.0988 42.7227C74.4276 42.6945 73.9003 42.2208 73.8458 41.4396C73.8186 41.0992 73.662 40.9425 73.376 40.9883C72.838 41.0885 72.4791 41.1536 71.981 41.2499C71.7427 41.2957 71.624 41.4552 71.6357 41.7247C71.696 42.9008 72.2816 44.9757 75.0599 44.9582C78.1961 44.928 78.6436 42.6138 78.6436 42.2237C78.6436 39.2139 74.4869 38.7343 74.305 37.5942L74.303 37.5923Z" fill="#111827"/>
</g>
</mask>
<g mask="url(#mask0_540_20)">
<rect x="-2" y="-5" width="97" height="54" fill="white"/>
</g>
</svg>
