<svg width="202" height="210" viewBox="0 0 202 210" fill="none" xmlns="http://www.w3.org/2000/svg">
<path d="M19.8799 67.6044L15.6862 65.3657L17.5883 61.7888L21.7901 64.0357L23.1955 61.4126L12.769 55.8415L11.3719 58.4646L15.4504 60.6443L13.5402 64.2129L9.46165 62.0333L8.05632 64.6563L18.4745 70.2273L19.8799 67.6044Z" fill="white"/>
<path d="M18.941 56.975C21.8386 59.0607 25.1876 58.8779 27.3739 55.8243C29.5434 52.8036 28.6654 49.5471 25.7679 47.4697C22.8784 45.4007 19.5209 45.6081 17.3514 48.6289C15.1651 51.6742 16.0599 54.906 18.9493 56.9751L18.941 56.975ZM19.3214 50.0445C20.5778 48.2961 22.3257 48.7426 23.992 49.9404C25.6665 51.1466 26.652 52.6685 25.4038 54.4086C24.1391 56.1652 22.3995 55.7106 20.7168 54.5043C19.0505 53.3065 18.0566 51.801 19.3214 50.0445Z" fill="white"/>
<path d="M33.2168 48.0368L27.9183 42.9363L27.9433 42.9118L34.7611 46.4318L36.2053 44.9331L32.4345 38.2438L32.4595 38.2192L37.7581 43.3198L39.703 41.3052L31.1944 33.0995L28.6733 35.7201L32.4167 42.6984L32.3916 42.7229L25.2841 39.2415L22.7547 41.8621L31.2635 50.0596L33.2168 48.0368Z" fill="white"/>
<path d="M48.0813 34.6662L46.5705 32.7591L41.8068 36.5484L40.296 34.6412L44.3352 31.4318L42.8243 29.533L38.7852 32.7424L37.4787 31.0935L42.1672 27.3778L40.6565 25.4707L33.636 31.0401L40.9857 40.301L48.0813 34.6662Z" fill="white"/>
<path d="M81.165 20.0399L81.4276 12.4636L81.4607 12.4556L84.6596 19.3296L87.5827 18.7377L88.1704 6.56091L85.2555 7.15288L85.3675 15.3113L85.3344 15.311L81.9348 7.8236L79.1855 8.3841L78.9829 16.6057L78.9497 16.6136L75.8649 9.05483L72.95 9.64678L78.2501 20.6319L81.165 20.0399Z" fill="white"/>
<path d="M96.3727 18.2432C100.085 18.0557 102.087 15.3309 101.898 11.7669C101.717 8.21958 99.4514 5.71844 95.7387 5.90605C91.9928 6.10161 90.0247 8.81018 90.2056 12.3658C90.3863 15.9296 92.6187 18.4305 96.3644 18.2431L96.3727 18.2432ZM95.8642 8.33712C98.0141 8.22546 98.7587 9.87729 98.863 11.928C98.9672 13.9952 98.3971 15.7088 96.2471 15.8205C94.0806 15.932 93.3526 14.2803 93.2485 12.2131C93.1441 10.1624 93.6977 8.44862 95.8642 8.33712Z" fill="white"/>
<path d="M106.622 13.8949L108.464 14.0365C110.982 14.2341 109.634 17.7586 110.166 18.3009L113.247 18.537L113.249 18.3718C112.598 18.1175 114.03 13.6435 111.119 12.8965L111.119 12.8635C112.617 12.6464 113.61 11.7468 113.741 10.1033C113.91 7.96437 112.419 6.61945 109.801 6.41257L104.26 5.98761L103.337 17.7727L106.302 18.0077L106.622 13.9031L106.622 13.8949ZM107.035 8.63413L109.043 8.79385C110.232 8.88788 110.823 9.36463 110.747 10.3557C110.671 11.3467 110.006 11.7206 108.825 11.6349L106.818 11.4752L107.044 8.64249L107.035 8.63413Z" fill="white"/>
<path d="M117.873 16.1845L119.355 15.0333L121.439 20.1692L124.845 20.8548L121.479 13.3924L126.866 9.20413L123.74 8.57089L118.593 12.6706L119.591 7.72948L116.67 7.13952L114.328 18.7209L117.24 19.3191L117.873 16.1845Z" fill="white"/>
<path d="M155.778 33.1596L159.003 35.6039L158.12 38.0252L160.713 39.9923L164.242 27.8355L161.855 26.0273L151.137 32.7267L153.681 34.652L155.769 33.1513L155.778 33.1596ZM161.387 29.0974L161.412 29.1142L159.842 33.3969L157.684 31.7563L161.387 29.0892L161.387 29.0974Z" fill="white"/>
<path d="M165.323 44.549C167.075 46.2601 168.906 46.6826 170.659 44.8811C171.894 43.6119 171.716 42.2878 170.974 41.2641L170.999 41.2395C171.929 41.6865 173.053 41.7634 174.071 40.7235C175.481 39.2823 175.224 37.6931 173.463 35.9737L169.361 31.9672L161.106 40.4258L165.332 44.5491L165.323 44.549ZM169.787 35.7815L171.211 37.1671C171.802 37.7429 172.134 38.3494 171.458 39.0455C170.774 39.7415 170.166 39.4216 169.576 38.8457L168.159 37.4602L169.796 35.7815L169.787 35.7815ZM168.356 40.206C169.241 41.074 169.499 41.7128 168.722 42.5071C167.947 43.3014 167.288 43.0719 166.403 42.2122L164.921 40.7681L166.874 38.7702L168.356 40.2142L168.356 40.206Z" fill="white"/>
<path d="M172.073 52.5561C174.375 55.4709 177.747 55.528 180.545 53.315C183.335 51.1102 184.061 47.8195 181.758 44.9047C179.431 41.9567 176.084 41.9329 173.294 44.1377C170.496 46.3508 169.746 49.6164 172.073 52.5561ZM175.18 46.5195C176.788 45.2538 178.512 44.7084 179.851 46.4072C181.182 48.0894 180.266 49.6592 178.659 50.9249C177.035 52.2069 175.302 52.7276 173.971 51.0453C172.633 49.3465 173.557 47.7933 175.172 46.5194L175.18 46.5195Z" fill="white"/>
<path d="M178.749 62.2568C180.579 65.324 182.642 65.691 185.177 64.178L191.669 60.306L190.147 57.7541L183.656 61.6261C182.334 62.4151 181.51 62.1345 180.844 61.0123C180.176 59.8902 180.317 59.032 181.638 58.2429L188.131 54.3711L186.601 51.8191L180.11 55.691C177.582 57.1958 176.919 59.1896 178.749 62.2568Z" fill="white"/>
<path d="M191.859 66.3825L183.292 70.2263L184.506 72.9405L193.072 69.0968L194.48 72.2178L196.697 71.2224L192.666 62.2496L190.451 63.2449L191.859 66.3825Z" fill="white"/>
<path d="M58.9456 26.4474C61.6841 26.4736 63.9253 24.2749 63.9515 21.5364C63.9777 18.7979 61.779 16.5568 59.0405 16.5306C56.302 16.5043 54.0608 18.703 54.0346 21.4415C54.0084 24.1799 56.2071 26.4212 58.9456 26.4474Z" fill="white"/>
<path d="M196.953 80.7046C196.697 79.8261 195.784 79.3298 194.905 79.5859C194.027 79.8419 193.531 80.7628 193.787 81.6331C196.444 90.7168 197.741 100.168 197.65 109.721C197.14 163.032 153.346 205.995 100.035 205.485C46.7236 204.975 3.75232 161.181 4.26259 107.87C4.3693 96.7216 6.35815 85.8063 10.1683 75.4374C10.4823 74.5808 10.0451 73.6344 9.18861 73.3122C8.33206 72.9982 7.38569 73.4354 7.06342 74.2919C3.11756 85.0232 1.06737 96.3016 0.956952 107.838C0.429206 162.976 44.8573 208.263 99.9953 208.791C155.134 209.319 200.42 164.89 200.948 109.752C201.042 99.8686 199.698 90.095 196.953 80.7046Z" fill="white"/>
<path d="M141.101 24.9643C143.84 24.9905 146.081 22.7919 146.107 20.0534C146.133 17.3149 143.934 15.0737 141.196 15.0475C138.458 15.0212 136.217 17.22 136.19 19.9585C136.164 22.697 138.363 24.9381 141.101 24.9643Z" fill="white"/>
</svg>
